<?xml version="1.0" standalone="no"?>
<!DOCTYPE svg PUBLIC "-//W3C//DTD SVG 20010904//EN"
 "http://www.w3.org/TR/2001/REC-SVG-20010904/DTD/svg10.dtd">
<svg version="1.0" xmlns="http://www.w3.org/2000/svg"
 width="1280.000000pt" height="1280.000000pt" viewBox="0 0 1280.000000 1280.000000"
 preserveAspectRatio="xMidYMid meet">

<g transform="translate(0.000000,1280.000000) scale(0.100000,-0.100000)"
fill="#000000" stroke="none">
<path d="M1410 7169 c0 -5 -6 -9 -12 -9 -20 0 -51 -73 -198 -466 -56 -148
-135 -367 -177 -488 -63 -182 -73 -221 -61 -232 7 -7 47 -24 88 -38 257 -86
476 -185 750 -339 96 -54 133 -70 160 -68 33 2 60 22 40 29 -6 2 -10 10 -10
18 0 18 -78 95 -171 169 -124 100 -272 197 -471 309 -35 19 -48 33 -48 49 0
12 42 153 94 312 215 661 232 730 192 758 -15 10 -176 6 -176 -4z"/>
<path d="M978 7059 c-19 -10 -40 -25 -47 -33 -8 -9 -19 -16 -25 -16 -19 0
-126 -101 -126 -119 0 -10 -9 -26 -20 -36 -11 -10 -20 -24 -20 -32 0 -7 -4
-13 -9 -13 -5 0 -11 -18 -15 -40 -3 -21 -12 -43 -20 -47 -14 -8 -60 -123 -50
-123 4 0 1 -6 -5 -14 -13 -16 -61 -150 -65 -181 -1 -11 -5 -27 -8 -35 -19 -48
-30 -148 -24 -210 6 -64 54 -236 75 -269 25 -39 57 35 202 459 105 309 206
639 213 699 4 33 -8 35 -56 10z"/>
<path d="M762 5665 c33 -46 75 -75 110 -75 11 0 27 -4 37 -10 10 -5 81 -23
157 -40 205 -45 292 -67 359 -90 132 -46 271 -69 302 -51 17 10 17 10 0 11
-10 0 -15 5 -12 10 3 6 -2 13 -12 17 -10 3 -25 12 -33 19 -32 26 -200 103
-290 132 -199 65 -480 122 -602 122 l-48 0 32 -45z"/>
</g>
</svg>
