<?xml version="1.0" encoding="UTF-8"?>
<svg version="1.1" xmlns="http://www.w3.org/2000/svg" width="1280" height="1280">
<path d="M0 0 C0.95067856 -0.00511093 1.90135712 -0.01022186 2.88084412 -0.01548767 C6.01250579 -0.02934374 9.14394614 -0.02842868 12.27563477 -0.02612305 C14.46932557 -0.03001454 16.66301562 -0.03435014 18.85670471 -0.03910828 C23.45560139 -0.04656372 28.05442132 -0.04628582 32.65332031 -0.04101562 C38.50666456 -0.03524759 44.35968963 -0.05209071 50.21298122 -0.0753603 C54.74729712 -0.09020197 59.28153821 -0.09095481 63.8158741 -0.08785057 C65.97133067 -0.08835941 68.12679192 -0.09351359 70.28222466 -0.10366249 C89.63786898 -0.18356057 112.41059524 0.29669274 127.90454102 13.5871582 C134.55497298 20.31556843 138.25392109 26.58100828 140.94750977 35.58325195 C141.28703674 36.69452454 141.28703674 36.69452454 141.63342285 37.82824707 C142.18691382 39.64226437 142.73389047 41.45826714 143.27954102 43.2746582 C143.85868256 43.28496567 144.4378241 43.29527313 145.03451538 43.30589294 C151.10245393 43.41469341 157.17026575 43.5292241 163.23803711 43.64697266 C165.49777557 43.69008757 167.75754171 43.73177743 170.01733398 43.77197266 C173.2793001 43.83024775 176.54112984 43.89377242 179.80297852 43.95825195 C180.80130707 43.97496445 181.79963562 43.99167694 182.82821655 44.00889587 C188.28920674 44.12232644 193.61795849 44.45616095 199.03164673 45.2013092 C203.07244746 45.33316091 206.56306647 43.70184239 210.27954102 42.2746582 C220.37532416 39.8068001 233.0389504 40.24734745 242.26000977 45.3762207 C245.76953917 48.06252716 247.59618557 51.25330907 249.27954102 55.2746582 C252.94919125 53.91002912 256.34410585 52.22609715 259.79907227 50.40576172 C280.04950152 39.81349011 304.31458926 37.98728021 326.25463867 44.5769043 C334.14483394 47.29575866 341.22123135 51.74435684 347.49829102 57.20825195 C349.88742757 58.63859028 351.53983797 58.54205322 354.27954102 58.2746582 C357.01929029 56.93819514 358.93705728 55.65493325 360.97875977 53.38793945 C375.9876565 39.60217861 401.05437041 40.49290261 419.85620117 41.10180664 C428.10504203 41.5183078 436.19009547 42.63044769 444.27954102 44.2746582 C445.35123535 44.4914624 445.35123535 44.4914624 446.44458008 44.71264648 C457.920025 47.16701095 457.920025 47.16701095 461.52954102 51.2121582 C463.72751653 55.05861535 465.27954102 57.80817428 465.27954102 62.2746582 C467.8402301 60.8114073 470.19283575 59.34649971 472.46704102 57.4621582 C490.87689222 43.14338504 513.89173159 38.92826606 536.7487793 41.55883789 C546.3042626 43.02227262 554.30553315 45.73496974 562.58032227 50.78637695 C565.22188197 52.24286646 567.31061727 52.86906753 570.27954102 53.2746582 C570.99110352 51.8824707 570.99110352 51.8824707 571.71704102 50.4621582 C574.58999071 46.21929817 578.42977106 45.32739728 583.27954102 44.2746582 C587.3248376 43.89333835 591.33221993 43.9000442 595.39282227 43.9465332 C596.52479538 43.94840637 597.65676849 43.95027954 598.82304382 43.95220947 C601.20058161 43.95889772 603.57810899 43.97274729 605.95556641 43.9934082 C609.59816697 44.02471085 613.24033454 44.03439954 616.88305664 44.0402832 C619.19881714 44.04944847 621.51457324 44.05982271 623.83032227 44.0715332 C625.4631591 44.07790802 625.4631591 44.07790802 627.12898254 44.08441162 C628.1407103 44.09401917 629.15243805 44.10362671 630.19482422 44.11352539 C631.08257034 44.12035339 631.97031647 44.1271814 632.88496399 44.13421631 C635.15514813 44.26736256 637.09501104 44.67254106 639.27954102 45.2746582 C645.34194741 45.81912303 650.41331895 45.26570394 656.07641602 43.02856445 C668.1546783 38.89540023 682.52814838 40.74833409 693.84204102 46.2746582 C699.79520572 49.83123638 704.77675362 55.04805826 709.27954102 60.2746582 C709.27954102 60.9346582 709.27954102 61.5946582 709.27954102 62.2746582 C712.06563705 61.34595952 713.97901931 60.5778103 716.06469727 58.47387695 C731.60713473 43.04108631 752.71946482 41.05044578 773.48388672 41.01928711 C785.98472954 41.11834691 798.52815016 42.2425492 810.66625977 45.3605957 C816.88739517 46.93437482 821.31037315 46.38142333 827.27954102 44.2746582 C827.28888672 43.34717773 827.29823242 42.41969727 827.30786133 41.46411133 C827.35213947 37.9895794 827.41386815 34.51623414 827.48706055 31.04223633 C827.51511041 29.54495373 827.53640375 28.04752745 827.55053711 26.55004883 C827.70630153 10.97360716 827.70630153 10.97360716 832.27954102 4.2746582 C837.49513611 0.23257201 842.64218763 0.10933584 849.04516602 0.0715332 C849.79739441 0.06583313 850.5496228 0.06013306 851.324646 0.05426025 C852.91490278 0.04483096 854.50517893 0.03828451 856.09545898 0.03442383 C858.50743474 0.02474689 860.9185473 -0.0062831 863.33032227 -0.0378418 C864.8810985 -0.04437568 866.43188078 -0.04962464 867.98266602 -0.0534668 C868.69440979 -0.0658136 869.40615356 -0.0781604 870.13946533 -0.09088135 C875.44992201 -0.06769022 879.43753714 1.05340031 884.27954102 3.2746582 C888.75395162 8.7816251 889.42299795 13.25241778 889.49047852 20.1262207 C889.51856897 21.71607436 889.54723356 23.30591796 889.57641602 24.89575195 C889.61747978 27.39037557 889.65438321 29.88481585 889.6809082 32.37963867 C889.70879343 34.79555732 889.75468116 37.21063469 889.80297852 39.6262207 C889.80785782 40.72361069 889.80785782 40.72361069 889.81283569 41.84317017 C889.90300377 45.7096542 890.37022477 48.76742721 891.79052734 52.37329102 C893.89716369 58.22353021 893.6567468 64.08021314 893.59853554 70.23520279 C893.57994334 72.38886437 893.58289168 74.54156691 893.59159851 76.69528198 C893.61326053 82.81125218 893.60243799 88.92683946 893.56445312 95.04272461 C893.54260091 98.80112879 893.54993652 102.5585814 893.57491112 106.31695175 C893.57848819 107.74021919 893.57093065 109.16356278 893.55166054 110.58670425 C893.16302584 119.63832764 893.16302584 119.63832764 897.19824219 127.32495117 C897.73892838 127.8334259 898.27961456 128.34190063 898.83668518 128.86578369 C902.75075698 132.68767349 902.55235407 138.23665525 902.61547852 143.3605957 C902.63621085 145.41805234 902.65062454 147.47490108 902.65014648 149.5324707 C902.6545157 151.6374634 902.69087853 153.74034852 902.72875977 155.8449707 C902.79134365 163.30223896 902.54428946 168.98688806 898.27954102 175.2746582 C893.52897153 178.95634955 889.12199905 179.39833877 883.24511719 179.43579102 C882.02672653 179.44539856 880.80833588 179.4550061 879.55302429 179.46490479 C878.2394545 179.46915466 876.9258847 179.47340454 875.57250977 179.4777832 C874.20494079 179.48354043 872.83737182 179.48929809 871.46980286 179.49505615 C868.60421373 179.50554783 865.7386525 179.51140234 862.87304688 179.51489258 C859.21473468 179.52037076 855.55679588 179.54439164 851.89860058 179.57286453 C849.07346037 179.59155908 846.24840887 179.59670013 843.42321205 179.59822845 C841.42306322 179.60269817 839.422962 179.62131098 837.42289734 179.64019775 C830.97053637 179.62442692 825.91947887 179.56112051 820.27954102 176.2746582 C819.74329102 175.7177832 819.20704102 175.1609082 818.65454102 174.5871582 C817.32125319 173.08006856 817.32125319 173.08006856 815.09204102 172.8371582 C811.91108631 173.33197338 809.60027615 174.62036205 806.78344727 176.12231445 C784.56753881 186.34648449 753.39263072 184.6225968 730.15234375 178.73583984 C727.82104112 178.16175163 725.67817708 178.14234529 723.27954102 178.1496582 C722.01110352 178.14579102 722.01110352 178.14579102 720.71704102 178.1418457 C718.35849145 178.18378361 718.35849145 178.18378361 716.46430492 178.77418137 C713.88250102 179.36561051 711.53535549 179.40680959 708.88581848 179.4151001 C707.79107208 179.42081024 706.69632568 179.42652039 705.56840515 179.43240356 C704.37197891 179.43352142 703.17555267 179.43463928 701.94287109 179.43579102 C700.67902588 179.44075592 699.41518066 179.44572083 698.11303711 179.45083618 C694.64790467 179.46393776 691.18279159 179.47040108 687.71763825 179.47484684 C685.54996816 179.47778199 683.3823033 179.48188769 681.21463585 179.48635101 C674.42456742 179.50002181 667.63451103 179.50968976 660.84442979 179.5135529 C653.02142365 179.51802879 645.19859265 179.53555647 637.37563974 179.5645535 C631.31941398 179.58621789 625.26323732 179.59625976 619.20697325 179.59759402 C615.59441905 179.59863892 611.98202958 179.60447868 608.36951637 179.62241364 C604.33396527 179.6420591 600.29877736 179.63758647 596.26318359 179.63110352 C595.07687851 179.6403183 593.89057343 179.64953308 592.6683197 179.6590271 C586.69226651 179.6290125 581.70019467 179.18039734 576.1248579 176.95156479 C569.8441406 174.64764673 563.03395394 177.11467107 556.84204102 178.7121582 C533.40077347 184.68541482 507.398389 184.98349527 485.27954102 174.2746582 C484.38493164 173.8827832 483.49032227 173.4909082 482.56860352 173.0871582 C477.29313376 170.67913597 473.66242985 168.10904089 469.94750977 163.63012695 C468.30482421 162.07298987 468.30482421 162.07298987 465.79125977 161.8215332 C462.44579444 162.42506972 461.85090664 163.6003671 459.90454102 166.3371582 C451.1781568 176.79235439 435.66373594 180.53832083 422.64746094 182.07397461 C402.38641461 183.79111865 376.81405101 183.97604099 357.93969727 175.18481445 C351.87860143 173.11104745 346.88664818 174.5102133 341.02954102 176.5871582 C315.68235782 184.95900465 285.66286633 186.06169136 261.27954102 174.2746582 C260.3965332 173.89438477 259.51352539 173.51411133 258.60375977 173.12231445 C252.21864029 170.24465059 247.85303786 166.54226163 243.27954102 161.2746582 C242.64918945 160.56051758 242.01883789 159.84637695 241.36938477 159.1105957 C230.44754139 145.98583275 228.0834602 128.89090366 228.21704102 112.3371582 C228.22155273 111.27174805 228.22606445 110.20633789 228.23071289 109.10864258 C228.24242315 106.49725529 228.25882377 103.88598696 228.27954102 101.2746582 C217.34707864 100.63612317 217.34707864 100.63612317 207.27954102 104.2746582 C205.07517683 108.18112638 205.06528056 111.66876589 205.15454102 116.0871582 C205.17258789 117.24860352 205.19063477 118.41004883 205.20922852 119.60668945 C205.23243164 120.48711914 205.25563477 121.36754883 205.27954102 122.2746582 C206.09938477 122.41000977 206.91922852 122.54536133 207.76391602 122.68481445 C216.39503747 124.40897388 216.39503747 124.40897388 218.93188477 126.8918457 C222.97508015 134.00176664 222.498044 141.52720347 222.51977539 149.43652344 C222.52946227 151.56981686 222.56050208 153.70213819 222.59204102 155.83520508 C222.59857411 157.2069442 222.60382338 158.57869016 222.60766602 159.95043945 C222.61701172 161.18705322 222.62635742 162.42366699 222.63598633 163.69775391 C222.10694248 169.00667271 220.25178324 172.81629486 217.27954102 177.2746582 C209.57752252 180.15892344 201.32444723 179.58386675 193.21313477 179.57543945 C191.64949938 179.57933266 190.08586505 179.58366861 188.52223206 179.58842468 C185.2568111 179.59585679 181.99149834 179.59561671 178.72607422 179.59033203 C174.5544491 179.58452849 170.38326669 179.60150409 166.21171474 179.6246767 C162.98681579 179.63944714 159.76202282 179.64028148 156.53709602 179.63716698 C154.99940168 179.6376781 153.46170108 179.6428764 151.92403984 179.6529789 C149.77068546 179.66539684 147.61818573 179.65852167 145.46484375 179.64697266 C144.2432103 179.64760208 143.02157684 179.64823151 141.76292419 179.64888 C136.53098366 179.08680971 132.60847873 177.67354001 128.90454102 173.7746582 C126.16690602 169.56291206 126.10659517 165.86902084 126.07641602 161.0090332 C126.07071594 160.29741028 126.06501587 159.58578735 126.05914307 158.8526001 C126.04970336 157.34632854 126.04316317 155.84003643 126.03930664 154.33374023 C126.02963442 152.04674444 125.99861689 149.76066066 125.96704102 147.47387695 C125.96050693 146.00643434 125.95525805 144.53898533 125.95141602 143.0715332 C125.93289581 142.05709137 125.93289581 142.05709137 125.91400146 141.02215576 C125.94008371 135.36896051 127.25643877 130.78330498 130.84204102 126.3371582 C132.27954102 125.2746582 132.27954102 125.2746582 134.27954102 125.2746582 C134.27954102 117.0246582 134.27954102 108.7746582 134.27954102 100.2746582 C130.30744005 100.89365494 130.30744005 100.89365494 128.34204102 103.2746582 C125.97099841 105.57385103 124.5072212 105.91602707 121.27954102 106.2746582 C121.27954102 106.9346582 121.27954102 107.5946582 121.27954102 108.2746582 C107.46330089 114.47236875 94.4717713 117.47159873 79.34204102 117.3371582 C78.37202148 117.33264648 77.40200195 117.32813477 76.40258789 117.32348633 C74.02817342 117.31178971 71.6538908 117.29539906 69.27954102 117.2746582 C69.27954102 119.2546582 69.27954102 121.2346582 69.27954102 123.2746582 C70.0155957 123.31204102 70.75165039 123.34942383 71.51000977 123.38793945 C81.6156686 124.06876984 81.6156686 124.06876984 85.27954102 127.2746582 C90.14381268 134.04989374 89.5612935 141.30533773 89.62963867 149.32666016 C89.64613781 150.74154173 89.67334836 152.15634204 89.71166992 153.57080078 C89.91381581 161.08974881 89.89962317 167.80971682 86.23901367 174.56884766 C80.89245922 179.22326778 73.3818856 179.717908 66.58203125 179.6628418 C65.35575516 179.67072723 65.35575516 179.67072723 64.10470581 179.67877197 C61.43231466 179.69185601 58.76053079 179.68327632 56.08813477 179.6730957 C54.21444079 179.67511958 52.34074758 179.67803363 50.46705627 179.68179321 C46.55266776 179.68620069 42.63848551 179.67983575 38.72412109 179.66577148 C33.72196531 179.6486687 28.72029212 179.65853775 23.71815395 179.67648888 C19.85326031 179.68735929 15.98848001 179.68386565 12.12358284 179.6761055 C10.27970382 179.67411311 8.43581431 179.67652877 6.59194756 179.68354416 C4.01024198 179.69121384 1.42930499 179.67947847 -1.15234375 179.6628418 C-1.90425491 179.66891449 -2.65616608 179.67498718 -3.43086243 179.6812439 C-9.7654654 179.60610669 -15.52672425 178.46839294 -20.15795898 173.8371582 C-23.80731346 167.85221686 -22.94197874 160.95957043 -22.96069336 154.16772461 C-22.97036441 152.04541302 -23.00139651 149.92408519 -23.03295898 147.80200195 C-23.15335055 132.6727949 -23.15335055 132.6727949 -18.4909668 126.69946289 C-16.72045898 125.2746582 -16.72045898 125.2746582 -10.72045898 123.2746582 C-10.72045898 101.1646582 -10.72045898 79.0546582 -10.72045898 56.2746582 C-14.18545898 54.7896582 -14.18545898 54.7896582 -17.72045898 53.2746582 C-21.30741688 50.80089413 -21.71244064 47.37447126 -22.72045898 43.2746582 C-23.0676237 38.81366875 -23.05020311 34.35874408 -23.03613281 29.88647461 C-23.03296651 27.77966836 -23.05650357 25.67426091 -23.08178711 23.56762695 C-23.08406017 22.20955578 -23.08476356 20.85148089 -23.08374023 19.4934082 C-23.08672119 18.27588867 -23.08970215 17.05836914 -23.09277344 15.80395508 C-22.59885742 11.12195514 -21.16961362 7.37593243 -18.47045898 3.4621582 C-12.98980168 -0.25685925 -6.3537287 -0.01779087 0 0 Z " fill="#FDFDFD" transform="translate(293.720458984375,553.725341796875)"/>
<path d="M0 0 C0.81670166 0.10393066 1.63340332 0.20786133 2.47485352 0.31494141 C19.67086214 2.74280237 37.5777946 7.26644288 53.34863281 14.6394043 C55.66486067 15.67735484 58.00315029 16.57287972 60.37890625 17.46484375 C65.61704285 19.55219977 70.26571911 22.20540344 75 25.25 C75.82032715 25.77376221 76.6406543 26.29752441 77.48583984 26.8371582 C88.09612306 33.74349933 98.45971552 42.01400662 106.6875 51.6875 C106.6875 52.3475 106.6875 53.0075 106.6875 53.6875 C107.3475 53.6875 108.0075 53.6875 108.6875 53.6875 C110.4140625 55.69921875 110.4140625 55.69921875 112.3125 58.375 C113.25996094 59.68017578 113.25996094 59.68017578 114.2265625 61.01171875 C115.79551583 63.88533648 116.00037051 65.47188641 115.6875 68.6875 C112.48520814 69.03183246 111.0013907 68.88606344 108.2421875 67.140625 C107.35789062 66.41359375 106.47359375 65.6865625 105.5625 64.9375 C82.24346548 46.58352307 55.36101181 33.37032 25.25 33.625 C24.23228516 33.62951172 23.21457031 33.63402344 22.16601562 33.63867188 C19.67311491 33.65037563 17.18033926 33.66677152 14.6875 33.6875 C10.72424161 42.88330511 7.78877206 52.40925928 4.75 61.9375 C0.82696753 74.21497908 -3.18437102 86.42511358 -7.7487793 98.4831543 C-9.46600821 103.0544358 -11.05887407 107.66553633 -12.640625 112.28515625 C-12.95054382 113.18866318 -13.26046265 114.0921701 -13.57977295 115.02305603 C-14.57600135 117.93136251 -15.56962389 120.84054747 -16.5625 123.75 C-16.90120117 124.74136963 -17.23990234 125.73273926 -17.58886719 126.75415039 C-21.61958009 138.5659 -25.56788903 150.37683001 -29.09716797 162.34936523 C-31.0278691 168.87313562 -33.23508119 175.26668575 -35.53344727 181.66894531 C-39.8642025 193.8714779 -43.53605595 206.30478623 -47.3125 218.6875 C-46.19234497 219.1218335 -46.19234497 219.1218335 -45.04956055 219.56494141 C-31.20825649 225.24171565 -18.54119319 234.19757436 -6.3125 242.6875 C-5.28382813 243.39777344 -4.25515625 244.10804688 -3.1953125 244.83984375 C4.12634031 250.02866726 10.91520027 255.81274593 17.6875 261.6875 C18.29698486 262.20868408 18.90646973 262.72986816 19.53442383 263.2668457 C32.89190189 274.77939573 45.38127448 287.35883682 55.6875 301.6875 C56.33477051 302.56027588 56.33477051 302.56027588 56.99511719 303.45068359 C63.24087165 311.88677366 68.5421902 320.72196112 73.5625 329.9375 C74.09794434 330.91895996 74.63338867 331.90041992 75.18505859 332.91162109 C80.39385959 342.66771025 84.58731369 352.67389477 87.8125 363.25 C88.19088013 364.46598877 88.19088013 364.46598877 88.5769043 365.70654297 C90.22821709 371.05502391 91.76709325 376.42529158 93.14453125 381.8515625 C93.52871437 383.68789355 93.52871437 383.68789355 94.6875 384.6875 C94.8125 387.1875 94.8125 387.1875 94.6875 389.6875 C93.6875 390.6875 93.6875 390.6875 91.5625 391.125 C87.99167125 390.58161302 86.41820659 388.91731859 83.81640625 386.5234375 C79.46028252 382.76678033 74.52115406 379.78689757 69.6875 376.6875 C68.67558594 376.03652344 67.66367188 375.38554688 66.62109375 374.71484375 C53.34100124 366.3545352 39.56058112 358.8044344 24.6875 353.6875 C23.96771973 353.4390332 23.24793945 353.19056641 22.50634766 352.93457031 C-22.99779733 337.68599508 -70.93711219 341.21769485 -117.53125 348.76171875 C-122.76160571 349.60836528 -127.99434642 350.39004601 -133.25 351.0625 C-135.21259766 351.32160156 -135.21259766 351.32160156 -137.21484375 351.5859375 C-140.3125 351.6875 -140.3125 351.6875 -143.3125 349.6875 C-142.98716864 343.61464789 -141.718978 338.15971824 -139.9375 332.375 C-139.72843018 331.68148438 -139.51936035 330.98796875 -139.30395508 330.2734375 C-136.98823428 322.99318592 -136.98823428 322.99318592 -134.3125 320.6875 C-128.62365485 319.78181516 -122.92942619 319.41040998 -117.1796875 319.1328125 C-116.31673065 319.09076691 -115.4537738 319.04872131 -114.56466675 319.00540161 C-104.52336948 318.5554711 -94.48699499 318.53545357 -84.4375 318.5625 C-83.48113647 318.56338623 -82.52477295 318.56427246 -81.53942871 318.56518555 C-67.77425502 318.58015082 -54.05163236 318.76717534 -40.3125 319.6875 C-44.37383995 319.21854046 -48.43676223 318.76469554 -52.5 318.3125 C-53.59248047 318.18617188 -54.68496094 318.05984375 -55.81054688 317.9296875 C-81.58905759 315.08908026 -107.10459349 314.45289641 -133 314.6875 C-138.36784361 314.73503645 -143.7355822 314.77538513 -149.1035862 314.79937744 C-151.22324789 314.81226608 -153.34254111 314.83720708 -155.46208191 314.86279297 C-156.72973892 314.86939941 -157.99739594 314.87600586 -159.3034668 314.8828125 C-160.41956833 314.89328613 -161.53566986 314.90375977 -162.68559265 314.91455078 C-165.3125 314.6875 -165.3125 314.6875 -167.3125 312.6875 C-167.87459236 300.02703876 -160.36370186 285.37795661 -154.3125 274.6875 C-151.13462459 273.6282082 -148.88661057 273.57291061 -145.55078125 273.58984375 C-144.43251953 273.59306641 -143.31425781 273.59628906 -142.16210938 273.59960938 C-140.41124023 273.61217773 -140.41124023 273.61217773 -138.625 273.625 C-137.44615234 273.62951172 -136.26730469 273.63402344 -135.05273438 273.63867188 C-132.13927211 273.65046727 -129.22591137 273.6669273 -126.3125 273.6875 C-126.95687012 273.66768066 -127.60124023 273.64786133 -128.26513672 273.62744141 C-131.23960583 273.53104411 -134.21347957 273.42183899 -137.1875 273.3125 C-138.20070313 273.2815625 -139.21390625 273.250625 -140.2578125 273.21875 C-146.79012038 272.96750739 -152.94865817 272.18892207 -159.3125 270.6875 C-160.36795884 266.08186142 -160.18008866 263.15387218 -158.6875 258.6875 C-158.30722656 257.53765625 -157.92695313 256.3878125 -157.53515625 255.203125 C-157.13167969 254.04296875 -156.72820312 252.8828125 -156.3125 251.6875 C-155.78462891 250.16382813 -155.78462891 250.16382813 -155.24609375 248.609375 C-154.22615594 245.7236973 -153.18597819 242.84604987 -152.13867188 239.97021484 C-151.15055238 237.24003833 -150.17680741 234.50488949 -149.203125 231.76953125 C-142.53698179 213.08221846 -142.53698179 213.08221846 -139.1875 204.9375 C-136.39549115 198.12810064 -134.08533163 191.19036897 -131.84716797 184.18066406 C-130.53268025 180.1148686 -129.14166194 176.18702023 -127.3515625 172.3046875 C-125.36961353 167.97665195 -123.87940438 163.562756 -122.41064453 159.03808594 C-120.5243223 153.28266434 -118.49590382 147.57671572 -116.47583008 141.8671875 C-115.98837059 140.487282 -115.50271865 139.10673675 -115.01879883 137.72558594 C-114.30673015 135.69328795 -113.58950478 133.66287589 -112.87109375 131.6328125 C-112.45142334 130.44187988 -112.03175293 129.25094727 -111.59936523 128.02392578 C-110.35228901 124.79066004 -108.88548681 121.77221683 -107.3125 118.6875 C-106.62035412 116.66106531 -105.97517954 114.61805053 -105.375 112.5625 C-102.73811675 103.74949477 -99.92670914 95.08147958 -96.44140625 86.56640625 C-94.14373788 80.70695439 -92.12786039 74.74154746 -90.05175781 68.80078125 C-88.16899569 63.41861845 -86.25661568 58.04779338 -84.3125 52.6875 C-83.66087891 50.87958984 -83.66087891 50.87958984 -82.99609375 49.03515625 C-82.56425781 47.86855469 -82.13242188 46.70195312 -81.6875 45.5 C-81.30335937 44.45457031 -80.91921875 43.40914063 -80.5234375 42.33203125 C-78.60608307 38.14477658 -78.60608307 38.14477658 -76.3125 36.6875 C-70.81865117 36.20497877 -65.52740457 37.14868207 -60.125 38.0625 C-59.29000977 38.20042969 -58.45501953 38.33835937 -57.59472656 38.48046875 C-55.93019499 38.75564044 -54.26595977 39.03261181 -52.60205078 39.31152344 C-50.62201682 39.63667297 -48.63748289 39.93419409 -46.65234375 40.2265625 C-35.8268624 41.84148892 -35.8268624 41.84148892 -31.3125 44.6875 C-30.1328125 48.30078125 -30.1328125 48.30078125 -29.3125 51.6875 C-28.33028534 48.91771782 -27.35165247 46.14674498 -26.375 43.375 C-26.06578613 42.50157959 -25.75657227 41.62815918 -25.43798828 40.72827148 C-23.54873825 35.35113935 -21.74512056 29.95544429 -20.01953125 24.5234375 C-19.43836548 22.714198 -19.43836548 22.714198 -18.84545898 20.8684082 C-18.08371917 18.48811182 -17.33416982 16.10387384 -16.59790039 13.71557617 C-13.47235256 4.00940434 -11.31493381 -1.67672444 0 0 Z M-31.3125 53.6875 C-30.3125 56.6875 -30.3125 56.6875 -30.3125 56.6875 Z M-33.3125 59.6875 C-32.3125 61.6875 -32.3125 61.6875 -32.3125 61.6875 Z M-34.3125 62.6875 C-33.3125 64.6875 -33.3125 64.6875 -33.3125 64.6875 Z M-35.3125 64.6875 C-36.3025 65.3475 -37.2925 66.0075 -38.3125 66.6875 C-41.86198493 67.03684177 -45.4030211 67.25788437 -48.96484375 67.44140625 C-52.59521011 68.79273282 -52.86505765 68.94712374 -54.41015625 72.21875 C-55.08447686 74.02717976 -55.71189553 75.85326971 -56.3125 77.6875 C-56.73136475 78.92943115 -57.15022949 80.1713623 -57.58178711 81.45092773 C-59.03704701 85.82818838 -60.42733606 90.22515058 -61.8125 94.625 C-67.08105725 111.32070334 -67.08105725 111.32070334 -69.30078125 116.6640625 C-72.0164357 123.20356255 -74.07306341 129.96965188 -76.2276001 136.70944214 C-77.55171439 140.85039902 -78.88792103 144.98745689 -80.22265625 149.125 C-80.48822327 149.9491893 -80.75379028 150.7733786 -81.02740479 151.62254333 C-83.2898749 158.63720643 -85.59879466 165.63533994 -87.9375 172.625 C-88.47358887 174.22722412 -88.47358887 174.22722412 -89.02050781 175.86181641 C-89.74424025 178.02291665 -90.46836183 180.18388662 -91.19287109 182.34472656 C-92.37779002 185.88243043 -93.55861727 189.42147799 -94.73828125 192.9609375 C-95.15150635 194.20053223 -95.56473145 195.44012695 -95.99047852 196.71728516 C-96.82437123 199.22171116 -97.65691022 201.72658836 -98.48803711 204.23193359 C-100.45499474 210.153998 -102.43650033 216.06916423 -104.47447205 221.96711731 C-105.42729847 224.72758632 -106.37134729 227.49102106 -107.31472778 230.25473022 C-107.76759623 231.5733226 -108.22477875 232.89044206 -108.68649292 234.20596313 C-109.32660297 236.03066789 -109.95076667 237.86094297 -110.57421875 239.69140625 C-110.93475342 240.73111572 -111.29528809 241.7708252 -111.66674805 242.84204102 C-112.35435471 245.87192975 -112.16017545 247.72760639 -111.3125 250.6875 C-110.08660156 250.84605469 -108.86070313 251.00460937 -107.59765625 251.16796875 C-52.95606379 258.46678172 -0.45845383 275.6248347 40.6875 313.6875 C41.3475 313.3575 42.0075 313.0275 42.6875 312.6875 C40.69075664 310.6633623 38.69022875 308.64320237 36.6875 306.625 C36.13449219 306.06361328 35.58148438 305.50222656 35.01171875 304.92382812 C28.22745602 298.10057538 20.97817212 291.99416336 13.3125 286.1875 C12.56790527 285.62216553 11.82331055 285.05683105 11.05615234 284.47436523 C2.23065898 277.79906552 -6.50948937 271.84429205 -16.3125 266.6875 C-17.364375 266.10484375 -18.41625 265.5221875 -19.5 264.921875 C-35.23994529 256.27895861 -51.59266386 248.54662663 -68.65625 242.90625 C-71.94296075 241.81067975 -75.17776041 240.63387552 -78.41601562 239.40576172 C-81.03919295 238.41227721 -83.6754423 237.45593342 -86.3125 236.5 C-87.735625 235.98373047 -87.735625 235.98373047 -89.1875 235.45703125 C-89.88875 235.20308594 -90.59 234.94914063 -91.3125 234.6875 C-91.58329976 229.28202133 -90.69903929 224.9177269 -88.8984375 219.875 C-88.646315 219.14361816 -88.3941925 218.41223633 -88.13442993 217.65869141 C-87.5997042 216.11396924 -87.05984076 214.57101703 -86.51513672 213.02978516 C-85.70087762 210.72535985 -84.90173242 208.41616563 -84.10546875 206.10546875 C-81.17317264 197.65310327 -78.03936421 189.31302177 -74.63891602 181.0378418 C-72.78223674 176.34812897 -71.22878688 171.5841856 -69.6640625 166.7890625 C-68.08590001 161.96357325 -66.42188528 157.16868868 -64.75 152.375 C-64.46906494 151.56329346 -64.18812988 150.75158691 -63.89868164 149.9152832 C-62.49755991 145.90655217 -61.02671294 141.95046169 -59.41015625 138.0234375 C-56.44454789 130.69819231 -54.10359374 123.14799064 -51.66699219 115.63452148 C-49.49614491 108.95480137 -47.29749311 102.3802118 -44.33056641 96.00512695 C-42.08493516 90.89295012 -40.33264781 85.5832069 -38.5 80.3125 C-37.87061523 78.55099609 -37.87061523 78.55099609 -37.22851562 76.75390625 C-36.83728516 75.63113281 -36.44605469 74.50835938 -36.04296875 73.3515625 C-35.50772583 71.82716553 -35.50772583 71.82716553 -34.96166992 70.27197266 C-34.04365956 67.59766714 -34.04365956 67.59766714 -35.3125 64.6875 Z M-118.3125 274.6875 C-117.9825 275.3475 -117.6525 276.0075 -117.3125 276.6875 C-116.99692169 282.68348786 -117.80948595 287.89016009 -119.3125 293.6875 C-116.19826371 294.72557876 -113.68451686 294.95032037 -110.4140625 295.15234375 C-109.22361328 295.22880127 -108.03316406 295.30525879 -106.80664062 295.3840332 C-105.52982422 295.46355225 -104.25300781 295.54307129 -102.9375 295.625 C-100.27330842 295.80301525 -97.60924384 295.98226098 -94.9453125 296.1640625 C-92.98126465 296.29796387 -92.98126465 296.29796387 -90.97753906 296.43457031 C-50.93257552 299.19813161 -7.43450537 305.9584922 27.54296875 326.98828125 C28.58066406 327.54902344 29.61835938 328.10976563 30.6875 328.6875 C31.3475 328.3575 32.0075 328.0275 32.6875 327.6875 C28.06249123 323.51021715 23.32416223 319.98085175 18 316.75 C17.29649414 316.31888916 16.59298828 315.88777832 15.86816406 315.44360352 C14.45581928 314.58073607 13.04163554 313.72087029 11.62548828 312.86425781 C9.96942944 311.8586892 8.32522454 310.83364204 6.68359375 309.8046875 C-27.83285306 288.69220936 -77.92697939 273.45330752 -118.3125 274.6875 Z M-36.3125 320.6875 C-36.3125 321.0175 -36.3125 321.3475 -36.3125 321.6875 C-34.3325 321.6875 -32.3525 321.6875 -30.3125 321.6875 C-30.3125 321.3575 -30.3125 321.0275 -30.3125 320.6875 C-32.2925 320.6875 -34.2725 320.6875 -36.3125 320.6875 Z M-30.3125 321.6875 C-30.3125 322.0175 -30.3125 322.3475 -30.3125 322.6875 C-28.6625 322.6875 -27.0125 322.6875 -25.3125 322.6875 C-25.3125 322.3575 -25.3125 322.0275 -25.3125 321.6875 C-26.9625 321.6875 -28.6125 321.6875 -30.3125 321.6875 Z M-20.3125 323.6875 C-16.3125 324.6875 -16.3125 324.6875 -16.3125 324.6875 Z M32.6875 328.6875 C33.0175 329.3475 33.3475 330.0075 33.6875 330.6875 C34.3475 330.3575 35.0075 330.0275 35.6875 329.6875 C34.6975 329.3575 33.7075 329.0275 32.6875 328.6875 Z " fill="#F07131" transform="translate(182.3125,451.3125)"/>
<path d="M0 0 C0.66 0 1.32 0 2 0 C-0.04354791 8.99872444 -2.767556 17.67517613 -5.72567749 26.40280151 C-6.52171058 28.75155875 -7.31192083 31.10221019 -8.10083008 33.45336914 C-9.46529939 37.51736941 -10.83427106 41.5798352 -12.20465088 45.6418457 C-14.37312209 52.07121059 -16.53452216 58.50293036 -18.6875 64.9375 C-18.9114444 65.60638245 -19.13538879 66.27526489 -19.36611938 66.9644165 C-24.13853078 81.23952402 -28.61275827 95.60215424 -33 110 C-31.88637085 110.42998291 -31.88637085 110.42998291 -30.75024414 110.86865234 C-26.80713835 112.4906987 -23.15811108 114.55140854 -19.4375 116.625 C-18.64553223 117.06505371 -17.85356445 117.50510742 -17.03759766 117.95849609 C-10.46070047 121.65558425 -4.17759637 125.66356961 2 130 C1.34 130.33 0.68 130.66 0 131 C-5.17867872 128.72643373 -10.07116041 125.77110315 -15 123 C-15 122.34 -15 121.68 -15 121 C-15.85851562 120.82210937 -15.85851562 120.82210937 -16.734375 120.640625 C-23.64169603 118.68752043 -29.99792926 113.8432878 -36 110 C-31.89854925 95.4948693 -27.49506391 81.10169567 -22.43066406 66.90258789 C-20.08835991 60.32307431 -17.96902721 53.70203051 -16 47 C-15.34 47 -14.68 47 -14 47 C-14.06832031 46.04867187 -14.13664062 45.09734375 -14.20703125 44.1171875 C-14.20324659 39.09873019 -12.4294895 34.77264201 -10.6875 30.125 C-10.06578343 28.41949775 -9.44468561 26.7137698 -8.82421875 25.0078125 C-8.5204834 24.1818457 -8.21674805 23.35587891 -7.90380859 22.50488281 C-6.52886426 18.69425913 -5.25735873 14.85077041 -4 11 C-3.34 11 -2.68 11 -2 11 C-1.90912109 10.06027344 -1.90912109 10.06027344 -1.81640625 9.1015625 C-1.73261719 8.28429687 -1.64882812 7.46703125 -1.5625 6.625 C-1.48128906 5.81289063 -1.40007812 5.00078125 -1.31640625 4.1640625 C-1 2 -1 2 0 0 Z " fill="#E71D10" transform="translate(168,560)"/>
<path d="M0 0 C0.33 0 0.66 0 1 0 C0.49070715 5.42456101 -0.44993059 9.70197796 -2.625 14.75 C-5.19898422 20.88790135 -7.50536298 27.08716924 -9.6875 33.375 C-9.97254395 34.19452148 -10.25758789 35.01404297 -10.55126953 35.85839844 C-12.17816485 40.56127644 -13.76498595 45.2762342 -15.31982422 50.00341797 C-15.97944352 51.93965869 -16.69345793 53.84481353 -17.4375 55.75 C-19.21933333 60.4051562 -20.58606786 65.18060346 -22.015625 69.953125 C-22.79591737 72.36831567 -23.64488066 74.5397074 -24.75 76.8125 C-26.32468706 80.82795201 -26.2253973 83.71745127 -26 88 C-25.16082031 88.12955078 -25.16082031 88.12955078 -24.3046875 88.26171875 C-13.23767571 90.20111471 -2.91740458 94.5025753 7.37890625 98.88671875 C9.90609525 99.96011497 12.44727496 100.98906549 15 102 C15 102.66 15 103.32 15 104 C10.87176135 103.33763335 7.34718973 101.9953254 3.5 100.375 C-3.88681753 97.31825556 -11.417387 94.79606259 -19.02929688 92.36083984 C-19.89103516 92.08191895 -20.75277344 91.80299805 -21.640625 91.515625 C-22.79353027 91.14872559 -22.79353027 91.14872559 -23.96972656 90.77441406 C-26 90 -26 90 -29 88 C-29.57850381 82.63736154 -28.36955278 78.18265484 -26.5859375 73.1875 C-26.20775375 72.09042725 -26.20775375 72.09042725 -25.82192993 70.97119141 C-25.2872042 69.42646924 -24.74734076 67.88351703 -24.20263672 66.34228516 C-23.38837762 64.03785985 -22.58923242 61.72866563 -21.79296875 59.41796875 C-18.86332637 50.97331591 -15.73276089 42.64122136 -12.33251953 34.37475586 C-10.44883346 29.60410862 -8.88700885 24.75252069 -7.30078125 19.875 C-5.08888017 13.17163859 -2.52067675 6.59187288 0 0 Z " fill="#E92611" transform="translate(119,598)"/>
<path d="M0 0 C1.26676943 3.80030829 0.5155805 5.14958621 -0.7734375 8.90625 C-1.18207031 10.11321533 -1.59070313 11.32018066 -2.01171875 12.5637207 C-2.46587618 13.87590716 -2.92030946 15.18799817 -3.375 16.5 C-3.83287124 17.83980112 -4.28989366 19.17989261 -4.74609375 20.52026367 C-5.45100319 22.59069212 -6.1566994 24.66082112 -6.86590576 26.7297821 C-8.48547061 31.45928676 -10.05797175 36.20223314 -11.6015625 40.95703125 C-12.00584473 42.19582031 -12.41012695 43.43460938 -12.82666016 44.7109375 C-13.59946059 47.0830457 -14.36748854 49.45671485 -15.13037109 51.83203125 C-15.6536499 53.4253125 -15.6536499 53.4253125 -16.1875 55.05078125 C-16.64189453 56.45324097 -16.64189453 56.45324097 -17.10546875 57.8840332 C-18 60 -18 60 -20 61 C-19.44834135 56.40284461 -18.51244364 52.36448021 -17 48 C-16.64679688 46.94039062 -16.29359375 45.88078125 -15.9296875 44.7890625 C-14.953125 41.859375 -13.9765625 38.9296875 -13 36 C-12.34 36 -11.68 36 -11 36 C-11.01353516 35.15695312 -11.01353516 35.15695312 -11.02734375 34.296875 C-10.78027136 27.29290999 -8.93201407 21.18046282 -6.625 14.625 C-6.16855103 13.32320801 -6.16855103 13.32320801 -5.70288086 11.99511719 C-4.15080929 7.71748686 -2.55136123 3.80356306 0 0 Z " fill="#EB2C0F" transform="translate(105,589)"/>
<path d="M0 0 C0.33 0 0.66 0 1 0 C1.66 1.98 2.32 3.96 3 6 C4.24547607 5.92273682 5.49095215 5.84547363 6.77416992 5.76586914 C20.3253733 4.98781712 33.75008174 5.0407662 47.3125 5.4375 C49.33657003 5.49094026 51.36065874 5.54367749 53.38476562 5.59570312 C58.2567627 5.72241482 63.12841199 5.85846431 68 6 C68 6.33 68 6.66 68 7 C25.46309028 8.09002099 25.46309028 8.09002099 10.9375 8.1875 C9.56936157 8.20683594 9.56936157 8.20683594 8.17358398 8.2265625 C6.11433996 8.22983406 4.05529505 8.12751042 2 8 C0 6 0 6 -0.125 2.875 C-0.08375 1.92625 -0.0425 0.9775 0 0 Z " fill="#FB7109" transform="translate(15,758)"/>
<path d="M0 0 C7.33215324 -0.36660766 14.04427276 0.53839523 21 3 C21.33 3.66 21.66 4.32 22 5 C23.60100362 5.23844735 25.20398395 5.46747944 26.8125 5.6484375 C30.98479666 6.31898518 34.98240304 7.71469232 39 9 C35.25983908 10.32029286 32.33408501 9.72135221 28.484375 9.00390625 C27.23398438 8.77509766 25.98359375 8.54628906 24.6953125 8.31054688 C23.38017415 8.06137829 22.0650704 7.81202701 20.75 7.5625 C19.41941209 7.31629267 18.08868403 7.07084144 16.7578125 6.82617188 C13.50375177 6.22487804 10.25132662 5.61587751 7 5 C7 4.34 7 3.68 7 3 C4.69 2.34 2.38 1.68 0 1 C0 0.67 0 0.34 0 0 Z M10 3 C10 3.33 10 3.66 10 4 C11.65 4 13.3 4 15 4 C15 3.67 15 3.34 15 3 C13.35 3 11.7 3 10 3 Z " fill="#F34C0C" transform="translate(142,770)"/>
<path d="M0 0 C0.66 0 1.32 0 2 0 C0.29101627 8.27788996 -2.31944365 16.20395023 -5.0625 24.1875 C-5.41505859 25.227854 -5.76761719 26.26820801 -6.13085938 27.34008789 C-6.47052734 28.31453857 -6.81019531 29.28898926 -7.16015625 30.29296875 C-7.46574463 31.1749292 -7.77133301 32.05688965 -8.08618164 32.96557617 C-9 35 -9 35 -11 36 C-12.14837842 32.55486474 -11.85516307 31.92266428 -10.6015625 28.65625 C-10.28703125 27.82222656 -9.9725 26.98820313 -9.6484375 26.12890625 C-9.31070313 25.26136719 -8.97296875 24.39382813 -8.625 23.5 C-7.97122909 21.78129757 -7.31757822 20.06254948 -6.6640625 18.34375 C-6.36967285 17.58255859 -6.0752832 16.82136719 -5.77197266 16.03710938 C-5.14124117 14.37271232 -4.56285342 12.68856027 -4 11 C-3.34 11 -2.68 11 -2 11 C-1.93941406 10.37351562 -1.87882813 9.74703125 -1.81640625 9.1015625 C-1.73261719 8.28429687 -1.64882812 7.46703125 -1.5625 6.625 C-1.48128906 5.81289063 -1.40007812 5.00078125 -1.31640625 4.1640625 C-1 2 -1 2 0 0 Z " fill="#F03311" transform="translate(168,560)"/>
<path d="M0 0 C12.5122039 2.1465632 24.23840589 6.30306225 36 11 C35.01 11.66 34.02 12.32 33 13 C30.71484375 12.27734375 30.71484375 12.27734375 27.9375 10.9375 C21.78886952 8.1721233 15.59696256 6.39897925 9.05639648 4.78881836 C5.15965291 3.78701625 2.67181078 3.01554345 0 0 Z " fill="#EA2F13" transform="translate(121,711)"/>
<path d="M0 0 C0.66 0 1.32 0 2 0 C0.89912853 6.04131723 -1.06733559 11.78611502 -2.9375 17.625 C-3.29779297 18.7696875 -3.65808594 19.914375 -4.02929688 21.09375 C-4.37927734 22.18945312 -4.72925781 23.28515625 -5.08984375 24.4140625 C-5.40816162 25.4138916 -5.72647949 26.4137207 -6.05444336 27.44384766 C-7 30 -7 30 -9 33 C-9.36447435 26.97402416 -8.08963273 22.1929079 -6.1875 16.5 C-5.79594727 15.27603516 -5.79594727 15.27603516 -5.39648438 14.02734375 C-3.83619055 9.22703238 -2.06188799 4.60674072 0 0 Z " fill="#DC1412" transform="translate(144,633)"/>
<path d="M0 0 C6.23202862 0.72160331 12.38916842 1.69752623 18.5625 2.8125 C20.00036865 3.07208496 20.00036865 3.07208496 21.46728516 3.33691406 C29.44158461 4.81734096 37.21706619 6.72088543 45 9 C45 9.33 45 9.66 45 10 C38.84765625 10.09765625 38.84765625 10.09765625 37 10 C36.505 9.505 36.505 9.505 36 9 C34.59199041 8.66905758 33.17253259 8.38656244 31.75 8.125 C27.6143 7.33809285 23.53027916 6.42342213 19.4375 5.4375 C15.58508773 4.52436926 11.88277011 3.81795762 7.9375 3.5 C4.17458353 3.02216934 2.6331903 2.6331903 0 0 Z " fill="#EA3F0E" transform="translate(124,751)"/>
<path d="M0 0 C4.97306516 0.49730652 8.63799813 1.55302334 13 4 C13 4.66 13 5.32 13 6 C13.53625 6.0825 14.0725 6.165 14.625 6.25 C17.84927622 7.26819249 20.21537917 9.0889857 23 11 C24.134375 11.61875 25.26875 12.2375 26.4375 12.875 C30.3929508 15.08228281 33.66455226 17.95855829 37 21 C32.83823144 21 30.47475583 18.80433049 27.1875 16.5 C18.62611987 10.64298536 9.767441 4.63101896 0 1 C0 0.67 0 0.34 0 0 Z " fill="#F99819" transform="translate(227,813)"/>
<path d="M0 0 C0.66 0.33 1.32 0.66 2 1 C2.77464557 3.50225135 3.44926446 5.95845345 4.0625 8.5 C4.85089627 13.11836214 4.85089627 13.11836214 7 17 C7.125 19.5 7.125 19.5 7 22 C6 23 6 23 3.875 23.4375 C-0.48047638 22.77471012 -2.90839257 19.99360258 -6 17 C-5.01 16.67 -4.02 16.34 -3 16 C-1.29749607 17.28725907 0.37064759 18.62131719 2 20 C2.66 20 3.32 20 4 20 C3.07976573 15.68273071 2.12506359 11.42382662 0.875 7.1875 C0 4 0 4 0 0 Z " fill="#F9A91A" transform="translate(270,819)"/>
<path d="M0 0 C7.73138112 0.24160566 15.00574965 1.00494596 22.5 2.875 C23.15742188 3.03645508 23.81484375 3.19791016 24.4921875 3.36425781 C28.62048916 4.44899014 32.24924246 5.97412787 36 8 C33.22654053 9.38672973 31.88389208 8.63516794 28.90625 7.85546875 C27.875 7.59056641 26.84375 7.32566406 25.78125 7.05273438 C24.6984375 6.76720703 23.615625 6.48167969 22.5 6.1875 C15.03170622 4.24263183 7.58909745 2.41288644 0 1 C0 0.67 0 0.34 0 0 Z " fill="#EC370F" transform="translate(107,732)"/>
<path d="M0 0 C1.7074998 1.28062485 3.37373596 2.61767557 5 4 C5 4.66 5 5.32 5 6 C5.66 6 6.32 6 7 6 C8.7265625 8.01171875 8.7265625 8.01171875 10.625 10.6875 C11.25664062 11.55761719 11.88828125 12.42773438 12.5390625 13.32421875 C14.10801583 16.19783648 14.31287051 17.78438641 14 21 C11.625 21.1875 11.625 21.1875 9 21 C8.34 20.01 7.68 19.02 7 18 C8.65 18.33 10.3 18.66 12 19 C9.10203676 13.84806535 5.68461332 8.47332431 1.3125 4.4453125 C0 3 0 3 0 0 Z " fill="#FAA21B" transform="translate(284,499)"/>
<path d="M0 0 C4.44739413 -0.07449251 8.8944519 -0.12876257 13.34228516 -0.16479492 C14.85341727 -0.17982543 16.36450618 -0.20025564 17.87548828 -0.22631836 C20.05512187 -0.26295689 22.23417575 -0.27978338 24.4140625 -0.29296875 C25.7232666 -0.3086792 27.0324707 -0.32438965 28.38134766 -0.34057617 C32.24866211 0.0234033 34.67336493 1.04858416 38 3 C35.39937213 4.30031393 34.55165879 3.75387709 31.75 3.0625 C25.66982526 1.8838565 19.67397716 1.70064675 13.5 1.625 C12.51999023 1.59929932 11.53998047 1.57359863 10.53027344 1.54711914 C9.13856934 1.5431311 9.13856934 1.5431311 7.71875 1.5390625 C6.88279297 1.53084473 6.04683594 1.52262695 5.18554688 1.51416016 C2.80653966 1.81849611 2.80653966 1.81849611 1.20507812 4.02880859 C0.60856445 5.00454834 0.60856445 5.00454834 0 6 C0 4.02 0 2.04 0 0 Z " fill="#F87F0F" transform="translate(194,483)"/>
<path d="M0 0 C0.66 0 1.32 0 2 0 C3.65497356 3.30994713 3.10084335 6.99123 3.0625 10.625 C3.05798828 11.42679688 3.05347656 12.22859375 3.04882812 13.0546875 C3.03703168 15.03649006 3.01909605 17.01825433 3 19 C2.01 19 1.02 19 0 19 C0 12.73 0 6.46 0 0 Z " fill="#8C8C8C" transform="translate(941,657)"/>
<path d="M0 0 C1 2 1 2 0.37915039 4.24658203 C0.03875732 5.15778809 -0.30163574 6.06899414 -0.65234375 7.0078125 C-1.01650391 7.99394531 -1.38066406 8.98007812 -1.75585938 9.99609375 C-2.34077148 11.54490234 -2.34077148 11.54490234 -2.9375 13.125 C-3.51661133 14.68541016 -3.51661133 14.68541016 -4.10742188 16.27734375 C-5.06486501 18.85416601 -6.02931504 21.42814288 -7 24 C-7.66 23.67 -8.32 23.34 -9 23 C-9 22.34 -9 21.68 -9 21 C-8.34 21 -7.68 21 -7 21 C-6.9175 19.741875 -6.835 18.48375 -6.75 17.1875 C-6.12711563 11.50932217 -4.44259288 6.1617057 -2 1 C-1.34 0.67 -0.68 0.34 0 0 Z " fill="#E62D13" transform="translate(85,651)"/>
<path d="M0 0 C10.27898247 0.31676371 19.18647533 2.04494705 29 5 C28.67 5.66 28.34 6.32 28 7 C23.89366244 6.21932746 19.79038677 5.4235936 15.6875 4.625 C14.52025391 4.40328125 13.35300781 4.1815625 12.15039062 3.953125 C11.03212891 3.73398437 9.91386719 3.51484375 8.76171875 3.2890625 C7.2142395 2.99056396 7.2142395 2.99056396 5.63549805 2.68603516 C3 2 3 2 0 0 Z " fill="#F9951B" transform="translate(179,452)"/>
<path d="M0 0 C1.65 0 3.3 0 5 0 C5 0.66 5 1.32 5 2 C6.3921875 2.061875 6.3921875 2.061875 7.8125 2.125 C13.45226069 2.87928898 18.18314238 6.15169541 23 9 C23 9.66 23 10.32 23 11 C14.82175048 8.60292686 7.53348722 4.91141228 0 1 C0 0.67 0 0.34 0 0 Z " fill="#F0260F" transform="translate(134,702)"/>
<path d="M0 0 C5.4939658 1.5495801 10.09842285 4.15912051 15 7 C16.35395339 7.77120788 17.70809765 8.54208085 19.0625 9.3125 C20.031875 9.869375 21.00125 10.42625 22 11 C21.34 11.66 20.68 12.32 20 13 C14.125 10.25 14.125 10.25 13 8 C12.34 8 11.68 8 11 8 C11 7.34 11 6.68 11 6 C10.28972656 5.81824219 9.57945312 5.63648438 8.84765625 5.44921875 C7.92855469 5.19785156 7.00945312 4.94648437 6.0625 4.6875 C5.14597656 4.44386719 4.22945312 4.20023438 3.28515625 3.94921875 C2.53105469 3.63597656 1.77695313 3.32273437 1 3 C0.67 2.01 0.34 1.02 0 0 Z " fill="#E93A11" transform="translate(168,728)"/>
<path d="M0 0 C0.33 0 0.66 0 1 0 C0.50520827 5.64062577 -0.55234212 9.82226218 -3 15 C-3.52301295 16.29078565 -4.04389527 17.58243694 -4.5625 18.875 C-6 22 -6 22 -8 23 C-6.05797655 14.97928527 -3.33160505 7.54549287 0 0 Z " fill="#F57117" transform="translate(24,734)"/>
<path d="M0 0 C1.17791932 3.53375797 0.75415072 4.44851107 -0.43359375 7.88671875 C-0.9121582 9.2934082 -0.9121582 9.2934082 -1.40039062 10.72851562 C-1.74263672 11.70498047 -2.08488281 12.68144531 -2.4375 13.6875 C-2.77587891 14.67556641 -3.11425781 15.66363281 -3.46289062 16.68164062 C-4.30059974 19.12397565 -5.14657083 21.56312271 -6 24 C-6.33 24 -6.66 24 -7 24 C-7.30081189 18.18430339 -6.81284631 15.19294703 -4 10 C-3.20514718 7.35049061 -2.60563955 4.70208417 -2 2 C-1.34 2 -0.68 2 0 2 C0 1.34 0 0.68 0 0 Z " fill="#F4330E" transform="translate(113,565)"/>
<path d="M0 0 C6.5423657 -0.20956527 12.21738841 0.45419504 18.5625 2 C19.38041016 2.19078125 20.19832031 2.3815625 21.04101562 2.578125 C23.02943044 3.04325127 25.01503756 3.52035427 27 4 C27 4.33 27 4.66 27 5 C24.66705225 5.04241723 22.33297433 5.04092937 20 5 C19.67 4.67 19.34 4.34 19 4 C17.68 4 16.36 4 15 4 C13.68 4 12.36 4 11 4 C10.67 3.67 10.34 3.34 10 3 C8.32115762 2.6068352 6.63149955 2.25914548 4.9375 1.9375 C4.01839844 1.76089844 3.09929687 1.58429687 2.15234375 1.40234375 C1.44207031 1.26957031 0.73179688 1.13679687 0 1 C0 0.67 0 0.34 0 0 Z " fill="#EC310F" transform="translate(79,703)"/>
<path d="M0 0 C6.20149836 0.33452066 11.64788732 3.08066581 17 6 C16.34 6.66 15.68 7.32 15 8 C13.948125 7.525625 12.89625 7.05125 11.8125 6.5625 C8.89824149 5.30676259 6.15253086 4.47765619 3 4 C3 3.34 3 2.68 3 2 C1.35 2 -0.3 2 -2 2 C-1.34 1.34 -0.68 0.68 0 0 Z " fill="#F28126" transform="translate(189,782)"/>
<path d="M0 0 C0.66 0 1.32 0 2 0 C1.27595226 4.04704581 0.16553713 7.89070402 -1.0625 11.8125 C-1.42472656 12.97394531 -1.78695312 14.13539063 -2.16015625 15.33203125 C-2.43730469 16.21246094 -2.71445313 17.09289062 -3 18 C-3.33 18 -3.66 18 -4 18 C-4.45164525 10.88658735 -3.32797915 6.28453206 0 0 Z " fill="#E9120F" transform="translate(144,633)"/>
<path d="M0 0 C0.66 0.33 1.32 0.66 2 1 C1.25 8.625 1.25 8.625 -1 12 C-3 11 -3 11 -4 10 C-4.66 10 -5.32 10 -6 10 C-4.75023244 6.34683329 -4.32901247 5.21934164 -1 3 C-0.67 2.01 -0.34 1.02 0 0 Z M-2 6 C-1 8 -1 8 -1 8 Z " fill="#F54E0E" transform="translate(150,508)"/>
<path d="M0 0 C0 0.33 0 0.66 0 1 C-6.07663963 2.59387269 -11.33795982 3.1612326 -17.6171875 2.875 C-20.26920906 2.81088666 -20.26920906 2.81088666 -23 5 C-22.5 3.0625 -22.5 3.0625 -21 1 C-14.13975475 -0.55326308 -7.00088876 -0.09604878 0 0 Z " fill="#F76A10" transform="translate(69,771)"/>
<path d="M0 0 C1.63001953 0.01353516 1.63001953 0.01353516 3.29296875 0.02734375 C4.12441406 0.03894531 4.95585938 0.05054688 5.8125 0.0625 C2.53948081 3.03159598 0.43184238 3.40604794 -3.9375 3.25 C-4.92234375 3.22292969 -5.9071875 3.19585938 -6.921875 3.16796875 C-7.66953125 3.13316406 -8.4171875 3.09835937 -9.1875 3.0625 C-9.1875 2.4025 -9.1875 1.7425 -9.1875 1.0625 C-5.90230525 -0.03256492 -3.45086585 -0.03710608 0 0 Z " fill="#C9C9C9" transform="translate(896.1875,729.9375)"/>
<path d="M0 0 C0.66 0 1.32 0 2 0 C2 0.66 2 1.32 2 2 C2.66 1.67 3.32 1.34 4 1 C6.6723621 0.86584528 9.32250488 0.95681459 12 1 C12 1.99 12 2.98 12 4 C8.37 4 4.74 4 1 4 C0.67 2.68 0.34 1.36 0 0 Z " fill="#C4C4C4" transform="translate(984,729)"/>
<path d="M0 0 C0.33 0 0.66 0 1 0 C0.48378772 6.83981276 -1.48590969 12.63876684 -4 19 C-4.33 19 -4.66 19 -5 19 C-4.5464821 11.97047248 -2.87940913 6.4150557 0 0 Z " fill="#E92F15" transform="translate(119,598)"/>
<path d="M0 0 C0.66 0 1.32 0 2 0 C2 0.66 2 1.32 2 2 C2.66 1.67 3.32 1.34 4 1 C6.6723621 0.86584528 9.32250488 0.95681459 12 1 C11.67 1.99 11.34 2.98 11 4 C7.7 4 4.4 4 1 4 C0.67 2.68 0.34 1.36 0 0 Z " fill="#C6C6C6" transform="translate(969,729)"/>
<path d="M0 0 C3.96 0 7.92 0 12 0 C11.67 0.99 11.34 1.98 11 3 C7.7 3 4.4 3 1 3 C0.67 2.01 0.34 1.02 0 0 Z " fill="#C5C5C5" transform="translate(954,730)"/>
<path d="M0 0 C0.66 0 1.32 0 2 0 C2 0.66 2 1.32 2 2 C2.66 1.67 3.32 1.34 4 1 C6.6723621 0.86584528 9.32250488 0.95681459 12 1 C11.67 1.99 11.34 2.98 11 4 C7.7 4 4.4 4 1 4 C0.67 2.68 0.34 1.36 0 0 Z " fill="#C6C6C6" transform="translate(472,729)"/>
<path d="M0 0 C3.96 0 7.92 0 12 0 C11.67 0.99 11.34 1.98 11 3 C7.7 3 4.4 3 1 3 C0.67 2.01 0.34 1.02 0 0 Z " fill="#C5C5C5" transform="translate(457,730)"/>
<path d="M0 0 C0.66 0 1.32 0 2 0 C1.67 1.32 1.34 2.64 1 4 C-2.3 4 -5.6 4 -9 4 C-9.33 3.01 -9.66 2.02 -10 1 C-2.25 0.875 -2.25 0.875 0 2 C0 1.34 0 0.68 0 0 Z " fill="#C6C6C6" transform="translate(452,729)"/>
<path d="M0 0 C0.66 0 1.32 0 2 0 C2 0.66 2 1.32 2 2 C2.66 1.67 3.32 1.34 4 1 C6.6723621 0.86584528 9.32250488 0.95681459 12 1 C11.67 1.99 11.34 2.98 11 4 C7.7 4 4.4 4 1 4 C0.67 2.68 0.34 1.36 0 0 Z " fill="#C6C6C6" transform="translate(344,729)"/>
<path d="M0 0 C3.96 0 7.92 0 12 0 C11.67 0.99 11.34 1.98 11 3 C7.7 3 4.4 3 1 3 C0.67 2.01 0.34 1.02 0 0 Z " fill="#C5C5C5" transform="translate(329,730)"/>
<path d="M0 0 C0.66 0 1.32 0 2 0 C1.67 1.32 1.34 2.64 1 4 C-2.3 4 -5.6 4 -9 4 C-9.33 3.01 -9.66 2.02 -10 1 C-2.25 0.875 -2.25 0.875 0 2 C0 1.34 0 0.68 0 0 Z " fill="#C6C6C6" transform="translate(324,729)"/>
<path d="M0 0 C0.66 0 1.32 0 2 0 C1.67 1.32 1.34 2.64 1 4 C-2.3 4 -5.6 4 -9 4 C-9.33 3.01 -9.66 2.02 -10 1 C-2.25 0.875 -2.25 0.875 0 2 C0 1.34 0 0.68 0 0 Z " fill="#C6C6C6" transform="translate(309,729)"/>
<path d="M0 0 C3.3 0.33 6.6 0.66 10 1 C10 4.66666667 10 8.33333333 10 12 C9.67 12 9.34 12 9 12 C8.67 9.69 8.34 7.38 8 5 C7.05125 4.731875 6.1025 4.46375 5.125 4.1875 C2 3 2 3 0 0 Z " fill="#EF3005" transform="translate(56,724)"/>
<path d="M0 0 C0.66 0 1.32 0 2 0 C1.67 3.3 1.34 6.6 1 10 C3.64 10.33 6.28 10.66 9 11 C9 11.33 9 11.66 9 12 C5.37 12 1.74 12 -2 12 C-1.125 2.25 -1.125 2.25 0 0 Z " fill="#EB390D" transform="translate(70,691)"/>
<path d="M0 0 C0.70189453 0.00451172 1.40378906 0.00902344 2.12695312 0.01367188 C3.85550538 0.02543073 5.58401365 0.04336546 7.3125 0.0625 C7.3125 0.3925 7.3125 0.7225 7.3125 1.0625 C5.86617187 1.10117187 5.86617187 1.10117187 4.390625 1.140625 C3.12734375 1.19734375 1.8640625 1.2540625 0.5625 1.3125 C-1.31695312 1.38210938 -1.31695312 1.38210938 -3.234375 1.453125 C-7.14105191 2.14253857 -8.17171728 3.1235015 -10.6875 6.0625 C-11.3475 6.0625 -12.0075 6.0625 -12.6875 6.0625 C-11.875 3.625 -11.875 3.625 -10.6875 1.0625 C-7.06882441 -0.1437252 -3.76243749 -0.04566918 0 0 Z " fill="#F24A12" transform="translate(38.6875,724.9375)"/>
<path d="M0 0 C1.47796906 0.19671742 2.95717962 0.38433755 4.4375 0.5625 C5.613125 0.706875 6.78875 0.85125 8 1 C8 1.66 8 2.32 8 3 C1.73 2.34 -4.54 1.68 -11 1 C-6.32641294 -1.33679353 -5.00205953 -0.91704425 0 0 Z " fill="#F6390E" transform="translate(81,726)"/>
<path d="M0 0 C2.24993359 -0.02707139 4.49996095 -0.04642829 6.75 -0.0625 C8.00296875 -0.07410156 9.2559375 -0.08570313 10.546875 -0.09765625 C13.28536501 -0.02021027 15.41880293 0.17219185 18 1 C18 1.66 18 2.32 18 3 C11.97099313 2.48758893 5.97995357 1.930215 0 1 C0 0.67 0 0.34 0 0 Z " fill="#EE5811" transform="translate(154,793)"/>
<path d="M0 0 C5.31027254 1.46032495 9.46330032 3.98320986 14 7 C11 8 11 8 8.30078125 6.78515625 C7.31464844 6.21667969 6.32851563 5.64820313 5.3125 5.0625 C4.31863281 4.49660156 3.32476562 3.93070312 2.30078125 3.34765625 C1.54152344 2.90292969 0.78226562 2.45820313 0 2 C0 1.34 0 0.68 0 0 Z " fill="#F9951A" transform="translate(258,495)"/>
<path d="M0 0 C4.86896303 0.59619955 9.32790951 1.56976822 14 3 C14 3.66 14 4.32 14 5 C8.58609132 4.53328373 4.79482068 3.75702189 0 1 C0 0.67 0 0.34 0 0 Z " fill="#F89223" transform="translate(231,485)"/>
<path d="M0 0 C2 2 2 2 2 5 C5.3 5.66 8.6 6.32 12 7 C12 7.33 12 7.66 12 8 C3.42857143 8.28571429 3.42857143 8.28571429 0 6 C0 4.02 0 2.04 0 0 Z " fill="#EA3518" transform="translate(91,681)"/>
<path d="M0 0 C1.28497537 3.85492611 0.4052209 5.40346836 -0.9375 9.1875 C-1.31777344 10.27417969 -1.69804688 11.36085938 -2.08984375 12.48046875 C-2.39019531 13.31191406 -2.69054687 14.14335938 -3 15 C-3.33 15 -3.66 15 -4 15 C-3.63495936 9.33557626 -2.9445679 4.99296295 0 0 Z " fill="#F33E0F" transform="translate(123,535)"/>
<path d="M0 0 C0.66 0.33 1.32 0.66 2 1 C1.35474023 2.4585872 0.7087728 3.91686137 0.0625 5.375 C-0.29714844 6.18710937 -0.65679687 6.99921875 -1.02734375 7.8359375 C-1.6569903 9.23683785 -2.31312642 10.62625284 -3 12 C-3.66 11.67 -4.32 11.34 -5 11 C-4.35731563 9.35293447 -3.71076198 7.70737825 -3.0625 6.0625 C-2.70285156 5.14597656 -2.34320313 4.22945313 -1.97265625 3.28515625 C-1 1 -1 1 0 0 Z " fill="#F99318" transform="translate(171,454)"/>
<path d="M0 0 C0.66 0 1.32 0 2 0 C1.57811541 1.8161982 1.13700835 3.62794073 0.6875 5.4375 C0.44386719 6.44683594 0.20023437 7.45617187 -0.05078125 8.49609375 C-0.36402344 9.32238281 -0.67726563 10.14867187 -1 11 C-1.99 11.33 -2.98 11.66 -4 12 C-3.34 9.36 -2.68 6.72 -2 4 C-1.34 4 -0.68 4 0 4 C0 2.68 0 1.36 0 0 Z " fill="#C3340D" transform="translate(117,552)"/>
<path d="M0 0 C1.5 1.1875 1.5 1.1875 3 3 C3.1875 5.6875 3.1875 5.6875 3 8 C0.625 8.1875 0.625 8.1875 -2 8 C-2.66 7.01 -3.32 6.02 -4 5 C-1.525 5.495 -1.525 5.495 1 6 C0.67 4.02 0.34 2.04 0 0 Z " fill="#F99913" transform="translate(295,512)"/>
<path d="M0 0 C5.28 0 10.56 0 16 0 C16 0.33 16 0.66 16 1 C15.09636719 1.02578125 14.19273437 1.0515625 13.26171875 1.078125 C12.08222656 1.13484375 10.90273437 1.1915625 9.6875 1.25 C7.92986328 1.31960938 7.92986328 1.31960938 6.13671875 1.390625 C2.90521318 1.70054149 2.90521318 1.70054149 1.08203125 4.046875 C0.72496094 4.69140625 0.36789063 5.3359375 0 6 C0 4.02 0 2.04 0 0 Z " fill="#F43508" transform="translate(194,483)"/>
<path d="M0 0 C4.87685861 1.35468295 6.48592381 3.71675909 9 8 C5.56801397 6.76067171 2.69674368 5.49698489 0 3 C0 2.01 0 1.02 0 0 Z " fill="#F48E25" transform="translate(228,789)"/>
<path d="M0 0 C1.43861294 0.08746284 2.87597508 0.19565348 4.3125 0.3125 C5.11300781 0.37050781 5.91351563 0.42851563 6.73828125 0.48828125 C9.36272334 1.08206694 10.30820672 1.95780294 12 4 C3.42857143 3.28571429 3.42857143 3.28571429 0 0 Z " fill="#F75E13" transform="translate(184,797)"/>
<path d="M0 0 C1.62418745 -0.08090971 3.24951745 -0.13914995 4.875 -0.1875 C5.77992187 -0.22230469 6.68484375 -0.25710938 7.6171875 -0.29296875 C8.79667969 -0.14794922 8.79667969 -0.14794922 10 0 C10.66 0.99 11.32 1.98 12 3 C10.56163249 2.88541307 9.12429034 2.75790884 7.6875 2.625 C6.88699219 2.55539062 6.08648437 2.48578125 5.26171875 2.4140625 C3 2 3 2 0 0 Z " fill="#F13F11" transform="translate(95,729)"/>
<path d="M0 0 C0.33 0 0.66 0 1 0 C1.0825 1.258125 1.165 2.51625 1.25 3.8125 C1.66557143 7.33811212 1.66557143 7.33811212 4.0625 10 C4.701875 10.33 5.34125 10.66 6 11 C3.03 10.505 3.03 10.505 0 10 C-0.74926071 6.33694766 -1.2380014 3.57644848 0 0 Z " fill="#F15A12" transform="translate(23,712)"/>
<path d="M0 0 C0.33 0 0.66 0 1 0 C0.91253716 1.43861294 0.80434652 2.87597508 0.6875 4.3125 C0.62949219 5.11300781 0.57148437 5.91351562 0.51171875 6.73828125 C-0.08206694 9.36272334 -0.95780294 10.30820672 -3 12 C-2.49202991 7.6822542 -1.80317221 3.96697886 0 0 Z " fill="#F64216" transform="translate(50,637)"/>
<path d="M0 0 C1.46067199 0.45082469 2.91848032 0.91093537 4.375 1.375 C5.18710938 1.63023437 5.99921875 1.88546875 6.8359375 2.1484375 C9 3 9 3 11 5 C3.51533742 4.38650307 3.51533742 4.38650307 1 2.5 C0 1 0 1 0 0 Z " fill="#EA3310" transform="translate(157,723)"/>
<path d="M0 0 C0.66 0.33 1.32 0.66 2 1 C1.34 3.97 0.68 6.94 0 10 C-0.66 10 -1.32 10 -2 10 C-1.54177532 6.53058454 -1.10868317 3.32604951 0 0 Z " fill="#E62911" transform="translate(156,595)"/>
<path d="M0 0 C8.57142857 0.85714286 8.57142857 0.85714286 12 3 C8.52128379 4.15957207 7.65780355 3.77456651 4.3125 2.5625 C3.50425781 2.27503906 2.69601563 1.98757813 1.86328125 1.69140625 C1.24839844 1.46324219 0.63351563 1.23507812 0 1 C0 0.67 0 0.34 0 0 Z " fill="#E74F12" transform="translate(124,751)"/>
<path d="M0 0 C0.66 0 1.32 0 2 0 C1.34 2.97 0.68 5.94 0 9 C-0.66 9 -1.32 9 -2 9 C-1.34 6.03 -0.68 3.06 0 0 Z " fill="#FB6919" transform="translate(100,498)"/>
<path d="M0 0 C1.39195915 4.17587745 -0.17676781 6.13474776 -2 10 C-2.33 10 -2.66 10 -3 10 C-3.125 4.25 -3.125 4.25 -2 2 C-1.34 2 -0.68 2 0 2 C0 1.34 0 0.68 0 0 Z " fill="#EB3B0D" transform="translate(113,565)"/>
<path d="M0 0 C1.65 1.32 3.3 2.64 5 4 C4.67 5.32 4.34 6.64 4 8 C2.35 6.02 0.7 4.04 -1 2 C-0.67 1.34 -0.34 0.68 0 0 Z " fill="#F18C28" transform="translate(240,781)"/>
<path d="M0 0 C3.3 0.99 6.6 1.98 10 3 C5.59232396 4.10191901 4.1077065 3.58706842 0 2 C0 1.34 0 0.68 0 0 Z " fill="#EE4610" transform="translate(176,763)"/>
<path d="M0 0 C3.77545388 1.09068668 6.47043472 1.9083091 9 5 C4.98525763 5 3.18024863 3.33218233 0 1 C0 0.67 0 0.34 0 0 Z " fill="#E9310B" transform="translate(181,727)"/>
<path d="M0 0 C3.93673644 1.31224548 6.22719294 2.91910327 9 6 C5.59687262 4.94124926 2.98646769 3.99097846 0 2 C0 1.34 0 0.68 0 0 Z " fill="#E5250B" transform="translate(177,696)"/>
<path d="M0 0 C1.27351308 2.54702616 0.80191925 3.4282945 0.0625 6.125 C-0.13214844 6.84945312 -0.32679688 7.57390625 -0.52734375 8.3203125 C-0.68332031 8.87460937 -0.83929688 9.42890625 -1 10 C-1.66 10 -2.32 10 -3 10 C-2.69201674 8.51988629 -2.378482 7.04092675 -2.0625 5.5625 C-1.88847656 4.73878906 -1.71445313 3.91507813 -1.53515625 3.06640625 C-1 1 -1 1 0 0 Z " fill="#F9360E" transform="translate(135,553)"/>
<path d="M0 0 C0.66 0 1.32 0 2 0 C1.50351065 4.46840411 1.31012244 5.68987756 -2 9 C-1.34 6.03 -0.68 3.06 0 0 Z " fill="#EF5812" transform="translate(145,524)"/>
<path d="M0 0 C0.78375 0.04125 1.5675 0.0825 2.375 0.125 C1.199375 0.99125 1.199375 0.99125 0 1.875 C-2.42547244 3.95397637 -3.48194417 5.21540333 -4.625 8.125 C-4.75 5.25 -4.75 5.25 -4.625 2.125 C-2.625 0.125 -2.625 0.125 0 0 Z " fill="#EF8D23" transform="translate(107.625,488.875)"/>
</svg>
