<?xml version="1.0" encoding="UTF-8"?>
<svg version="1.1" xmlns="http://www.w3.org/2000/svg" width="1280" height="1280">
<path d="M0 0 C0 0.66 0 1.32 0 2 C0.66 2 1.32 2 2 2 C6.31331354 12.42384106 6.31331354 12.42384106 4.16796875 18.265625 C0.20343274 27.47166368 0.20343274 27.47166368 -3.5625 29.125 C-4.366875 29.41375 -5.17125 29.7025 -6 30 C-6.33 30.33 -6.66 30.66 -7 31 C-9.86267567 31.07325168 -12.700719 31.09238205 -15.5625 31.0625 C-16.36880859 31.05798828 -17.17511719 31.05347656 -18.00585938 31.04882812 C-20.00393756 31.03700518 -22.00197783 31.01906914 -24 31 C-24.33 31.99 -24.66 32.98 -25 34 C-26.65 34 -28.3 34 -30 34 C-30 34.99 -30 35.98 -30 37 C-31.98 37 -33.96 37 -36 37 C-36.66 38.32 -37.32 39.64 -38 41 C-37.35933594 41.08636719 -36.71867187 41.17273438 -36.05859375 41.26171875 C-26.79322124 42.76682397 -21.7853071 46.93079486 -15.5 53.6875 C-13.20053914 56.33952099 -13.20053914 56.33952099 -10 56 C-9.01 55.67 -8.02 55.34 -7 55 C-6.5359375 54.0409375 -6.5359375 54.0409375 -6.0625 53.0625 C-4.74215782 50.49948282 -3.5185326 50.2592663 -1 49 C-0.31513275 47.67592331 0.34870203 46.34090759 1 45 C3.5 42.25 3.5 42.25 6 40 C6.66 40 7.32 40 8 40 C8.185625 39.071875 8.185625 39.071875 8.375 38.125 C9 36 9 36 11 34 C11.99 34 12.98 34 14 34 C14.33 33.01 14.66 32.02 15 31 C15.66 31 16.32 31 17 31 C17.185625 30.071875 17.185625 30.071875 17.375 29.125 C18 27 18 27 20 25 C20.99 25 21.98 25 23 25 C23.495 23.515 23.495 23.515 24 22 C28.41473264 19.16195759 31.7951786 18.36081141 37 19 C39.5288437 20.14094315 41.66373928 21.47427871 44 23 C44 23.66 44 24.32 44 25 C44.99 25.33 45.98 25.66 47 26 C49.86421368 29.73418513 50.3665063 32.47639877 50.25 37.125 C50.23453125 38.15882813 50.2190625 39.19265625 50.203125 40.2578125 C50 43 50 43 49 46 C48.34 46 47.68 46 47 46 C46.79375 46.721875 46.5875 47.44375 46.375 48.1875 C44.60768726 51.80245787 42.09827794 53.48264917 39 56 C38.68160156 56.64710938 38.36320312 57.29421875 38.03515625 57.9609375 C36.83181166 60.3312993 35.51901577 61.43292084 33.4375 63.0625 C30.80562347 65.12532214 30.09567461 65.71297618 29 69 C28.01 69 27.02 69 26 69 C25.505 70.485 25.505 70.485 25 72 C23.5625 73.6875 23.5625 73.6875 22 75 C21.34 75 20.68 75 20 75 C19.505 76.485 19.505 76.485 19 78 C18.34 78 17.68 78 17 78 C16.505 79.485 16.505 79.485 16 81 C15.34 81 14.68 81 14 81 C13.505 82.485 13.505 82.485 13 84 C12.34 84 11.68 84 11 84 C10.505 85.485 10.505 85.485 10 87 C9.34 87 8.68 87 8 87 C7.505 88.485 7.505 88.485 7 90 C6.34 90 5.68 90 5 90 C4.79375 90.763125 4.5875 91.52625 4.375 92.3125 C2.57411725 95.83240719 0.56476738 96.48307771 -3 98 C-3.33 98.33 -3.66 98.66 -4 99 C-17.34134952 100.07791036 -17.34134952 100.07791036 -21.875 97.125 C-22.57625 96.42375 -23.2775 95.7225 -24 95 C-24 94.34 -24 93.68 -24 93 C-24.99 92.67 -25.98 92.34 -27 92 C-27 91.34 -27 90.68 -27 90 C-27.99 90 -28.98 90 -30 90 C-30 89.01 -30 88.02 -30 87 C-30.99 87 -31.98 87 -33 87 C-33 86.01 -33 85.02 -33 84 C-33.99 84 -34.98 84 -36 84 C-36 83.01 -36 82.02 -36 81 C-36.99 81 -37.98 81 -39 81 C-39 80.01 -39 79.02 -39 78 C-39.99 78 -40.98 78 -42 78 C-42 77.01 -42 76.02 -42 75 C-42.99 75 -43.98 75 -45 75 C-45 74.01 -45 73.02 -45 72 C-45.99 72 -46.98 72 -48 72 C-48 71.01 -48 70.02 -48 69 C-49.32 68.67 -50.64 68.34 -52 68 C-51.01 69.485 -51.01 69.485 -50 71 C-49.74239721 73.69452521 -49.91099947 76.28548375 -50 79 C-49.34 79 -48.68 79 -48 79 C-47.505 82.96 -47.505 82.96 -47 87 C-46.01 87.33 -45.02 87.66 -44 88 C-42.4921875 89.671875 -42.4921875 89.671875 -40.875 91.75 C-36.34885547 97.10257432 -30.88113905 100.5243607 -24 102 C-24 102.66 -24 103.32 -24 104 C-7.64690285 103.8441165 -7.64690285 103.8441165 6.703125 96.59375 C7.83204465 95.42402602 8.91998186 94.2150204 10 93 C12.3125 92.1875 12.3125 92.1875 14 92 C14 90.68 14 89.36 14 88 C16.71526579 84.48021101 18.69849401 83.6358748 23 83 C28.98874234 82.62515878 34.40158814 82.57906514 40 85 C40 85.66 40 86.32 40 87 C40.598125 87.185625 41.19625 87.37125 41.8125 87.5625 C45.00556465 89.66079963 46.04358077 92.43262608 47 96 C47.79929747 102.38208291 46.55334498 107.66998253 43 113 C42.34 113 41.68 113 41 113 C40.505 114.485 40.505 114.485 40 116 C39.34 116 38.68 116 38 116 C37.87625 116.61875 37.7525 117.2375 37.625 117.875 C37 120 37 120 35 122 C34.01 122 33.02 122 32 122 C31.67 122.99 31.34 123.98 31 125 C30.34 125 29.68 125 29 125 C28.67 125.99 28.34 126.98 28 128 C27.01 128 26.02 128 25 128 C25 128.66 25 129.32 25 130 C23.35 130.33 21.7 130.66 20 131 C20 131.66 20 132.32 20 133 C16.33606121 134.60297322 12.66221854 136.1681255 8.9375 137.625 C8.32777344 137.86476563 7.71804688 138.10453125 7.08984375 138.3515625 C0.04373681 140.5378312 -7.2670957 140.21933093 -14.5625 140.25 C-15.76197266 140.270625 -16.96144531 140.29125 -18.19726562 140.3125 C-29.63228194 140.36186866 -39.99026631 138.69180936 -50 133 C-50 132.34 -50 131.68 -50 131 C-51.11375 130.814375 -51.11375 130.814375 -52.25 130.625 C-54.80141485 130.04513299 -56.7267573 129.26291261 -59 128 C-59 127.01 -59 126.02 -59 125 C-59.99 125 -60.98 125 -62 125 C-62 124.01 -62 123.02 -62 122 C-62.99 122 -63.98 122 -65 122 C-65 121.01 -65 120.02 -65 119 C-65.99 119 -66.98 119 -68 119 C-68 118.01 -68 117.02 -68 116 C-68.99 116 -69.98 116 -71 116 C-71 115.01 -71 114.02 -71 113 C-71.99 113 -72.98 113 -74 113 C-76.49977543 109.66696609 -77 108.26696398 -77 104 C-77.99 103.67 -78.98 103.34 -80 103 C-81 100.875 -81 100.875 -82 98 C-82.515625 96.824375 -83.03125 95.64875 -83.5625 94.4375 C-85.78354447 89.12630671 -86.17078673 84.64104601 -86.203125 78.90234375 C-86.21167511 77.71808556 -86.21167511 77.71808556 -86.22039795 76.50990295 C-86.22983276 74.8380771 -86.23637589 73.16623278 -86.24023438 71.49438477 C-86.24987388 68.97052208 -86.28088312 66.44749758 -86.3125 63.92382812 C-86.38138365 53.40110144 -86.34937434 42.94684566 -80 34 C-79.67 33.34 -79.34 32.68 -79 32 C-78.34 32 -77.68 32 -77 32 C-76.938125 31.319375 -76.87625 30.63875 -76.8125 29.9375 C-75.10109307 23.75010572 -71.02127089 19.79988067 -66 16 C-65.34 15.01 -64.68 14.02 -64 13 C-63.34 13 -62.68 13 -62 13 C-62 12.34 -62 11.68 -62 11 C-56.70588235 7 -56.70588235 7 -53 7 C-53 6.34 -53 5.68 -53 5 C-37.29994473 -3.92048595 -16.36072548 -10.7788309 0 0 Z " fill="#FFFFFF" transform="translate(334,677)"/>
<path d="M0 0 C1.24233398 0.00773438 1.24233398 0.00773438 2.50976562 0.015625 C6.5604966 0.06751587 10.36230624 0.25239506 14.3125 1.25 C14.3125 1.91 14.3125 2.57 14.3125 3.25 C16.2925 3.58 18.2725 3.91 20.3125 4.25 C20.3125 4.91 20.3125 5.57 20.3125 6.25 C21.116875 6.559375 21.92125 6.86875 22.75 7.1875 C25.3125 8.25 25.3125 8.25 26.3125 9.25 C26.38563567 11.78049402 26.40497527 14.28304837 26.375 16.8125 C26.37048828 17.52341797 26.36597656 18.23433594 26.36132812 18.96679688 C26.34950864 20.72790013 26.33157263 22.48896036 26.3125 24.25 C25.3225 24.58 24.3325 24.91 23.3125 25.25 C23.3125 25.91 23.3125 26.57 23.3125 27.25 C20.66659986 27.27684679 18.02096904 27.29676357 15.375 27.3125 C14.62025391 27.32087891 13.86550781 27.32925781 13.08789062 27.33789062 C11.16255687 27.34652441 9.23714419 27.30224333 7.3125 27.25 C6.9825 26.92 6.6525 26.59 6.3125 26.25 C3.64191149 26.10884839 0.98817762 26.20752893 -1.6875 26.25 C0.35226214 27.21238036 2.39440046 28.16972527 4.4375 29.125 C5.57445312 29.65867187 6.71140625 30.19234375 7.8828125 30.7421875 C10.99119521 32.108743 14.07454996 33.23629528 17.3125 34.25 C17.3125 34.91 17.3125 35.57 17.3125 36.25 C17.869375 36.311875 18.42625 36.37375 19 36.4375 C22.31336472 37.60165517 24.01725296 39.64458444 26.3125 42.25 C26.6425 43.24 26.9725 44.23 27.3125 45.25 C27.35117187 43.79980469 27.35117187 43.79980469 27.390625 42.3203125 C27.81046699 32.68303041 28.73830922 23.87399611 35.3125 16.25 C35.9725 16.25 36.6325 16.25 37.3125 16.25 C37.539375 15.693125 37.76625 15.13625 38 14.5625 C41.38502367 8.59841068 46.27347105 5.90626461 52.3125 3.25 C53.488125 2.6725 54.66375 2.095 55.875 1.5 C63.72678313 -1.35661295 73.64611566 -0.83727369 81.3125 2.25 C83.21065969 3.18347853 85.08681999 4.16310952 86.9375 5.1875 C87.85789062 5.69152344 88.77828125 6.19554687 89.7265625 6.71484375 C92.0732701 8.10797983 94.2446544 9.46854616 96.3125 11.25 C96.3125 11.91 96.3125 12.57 96.3125 13.25 C97.3025 13.58 98.2925 13.91 99.3125 14.25 C101.95219016 17.15432075 103.13458067 20.12137365 104.375 23.8125 C105.46871055 27.04970754 106.40171329 29.38381994 108.3125 32.25 C108.89326557 37.12239686 108.97922652 41.72605366 107 46.25 C106.443125 46.91 105.88625 47.57 105.3125 48.25 C104.838125 48.848125 104.36375 49.44625 103.875 50.0625 C102.3125 51.25 102.3125 51.25 98.3125 51.25 C99.3025 52.3328125 99.3025 52.3328125 100.3125 53.4375 C103.69301862 58.35353587 102.61634138 64.56141418 102.3125 70.25 C101.3225 70.58 100.3325 70.91 99.3125 71.25 C98.9825 72.24 98.6525 73.23 98.3125 74.25 C94.59933289 77.1144432 91.94675362 77.57332002 87.3125 77.25 C87.3125 77.91 87.3125 78.57 87.3125 79.25 C84.44231559 80.68509221 81.97706277 80.36158506 78.7734375 80.34765625 C76.82050781 80.34282227 76.82050781 80.34282227 74.828125 80.33789062 C73.44791601 80.32953466 72.06770768 80.32106971 70.6875 80.3125 C69.29948074 80.30748501 67.91145978 80.3029221 66.5234375 80.29882812 C63.11974868 80.28700976 59.71614561 80.27053434 56.3125 80.25 C55.9825 79.26 55.6525 78.27 55.3125 77.25 C53.3325 77.25 51.3525 77.25 49.3125 77.25 C48.9825 76.59 48.6525 75.93 48.3125 75.25 C46.28786745 74.59786708 46.28786745 74.59786708 44.3125 74.25 C44.3125 73.26 44.3125 72.27 44.3125 71.25 C42.9925 71.25 41.6725 71.25 40.3125 71.25 C38.5625 69.9375 38.5625 69.9375 37.3125 68.25 C37.3125 67.26 37.3125 66.27 37.3125 65.25 C36.6525 65.25 35.9925 65.25 35.3125 65.25 C32.1370294 62.86839705 31.38672164 59.96845952 30.3125 56.25 C30.044375 57.24 29.77625 58.23 29.5 59.25 C28.335661 63.34612784 26.84538422 67.27843633 25.3125 71.25 C24.3225 71.25 23.3325 71.25 22.3125 71.25 C21.8175 72.735 21.8175 72.735 21.3125 74.25 C19.9925 74.25 18.6725 74.25 17.3125 74.25 C17.3125 75.24 17.3125 76.23 17.3125 77.25 C10.58505681 81.02733477 4.06952931 80.66246737 -3.5 80.5625 C-4.73943359 80.56572266 -5.97886719 80.56894531 -7.25585938 80.57226562 C-16.42029104 80.51720896 -16.42029104 80.51720896 -18.6875 78.25 C-21.01421854 77.56060191 -23.34817594 76.89533078 -25.6875 76.25 C-27.04100594 75.62530495 -28.38684483 74.9783669 -29.6875 74.25 C-29.6875 73.26 -29.6875 72.27 -29.6875 71.25 C-30.615625 71.064375 -30.615625 71.064375 -31.5625 70.875 C-33.6875 70.25 -33.6875 70.25 -35.6875 68.25 C-35.8828125 65.8671875 -35.8828125 65.8671875 -35.8125 63.125 C-35.79445313 62.21492187 -35.77640625 61.30484375 -35.7578125 60.3671875 C-35.73460937 59.66851563 -35.71140625 58.96984375 -35.6875 58.25 C-34.2025 57.755 -34.2025 57.755 -32.6875 57.25 C-32.6875 56.26 -32.6875 55.27 -32.6875 54.25 C-29.29827645 51.39034263 -26.18749053 50.73498635 -21.77734375 50.8828125 C-19.4775345 51.28689113 -17.96010183 52.03533181 -15.9375 53.1875 C-10.83428822 56.07591787 -5.43897207 56.05828426 0.3125 56.25 C0.3125 55.59 0.3125 54.93 0.3125 54.25 C-2.6575 53.755 -2.6575 53.755 -5.6875 53.25 C-5.6875 52.59 -5.6875 51.93 -5.6875 51.25 C-6.47125 51.29125 -7.255 51.3325 -8.0625 51.375 C-10.6875 51.25 -10.6875 51.25 -12.6875 49.25 C-14.34447379 48.55959426 -16.0130761 47.8969365 -17.6875 47.25 C-19.69501815 46.26517978 -21.69684459 45.26847486 -23.6875 44.25 C-23.6875 43.59 -23.6875 42.93 -23.6875 42.25 C-24.6775 41.92 -25.6675 41.59 -26.6875 41.25 C-31.19915024 34.08443786 -32.70265313 26.39246407 -31.125 18 C-29.06221338 11.24402772 -23.68674503 6.60957722 -17.6875 3.25 C-11.54910934 0.52479501 -6.67656269 -0.16862668 0 0 Z M66.3125 25.25 C66.3125 25.91 66.3125 26.57 66.3125 27.25 C64.3325 27.25 62.3525 27.25 60.3125 27.25 C59.6525 28.57 58.9925 29.89 58.3125 31.25 C64.9125 31.25 71.5125 31.25 78.3125 31.25 C75.20579953 26.98339073 75.20579953 26.98339073 70.625 26 C69.81675781 25.85046875 69.00851562 25.7009375 68.17578125 25.546875 C67.56089844 25.44890625 66.94601562 25.3509375 66.3125 25.25 Z M62.3125 53.25 C64.94714964 56.48558272 64.94714964 56.48558272 68.125 56.6484375 C69.176875 56.64070312 70.22875 56.63296875 71.3125 56.625 C72.364375 56.63273438 73.41625 56.64046875 74.5 56.6484375 C77.67785036 56.48558272 77.67785036 56.48558272 80.3125 53.25 C74.3725 53.25 68.4325 53.25 62.3125 53.25 Z " fill="#FFFFFF" transform="translate(661.6875,718.75)"/>
<path d="M0 0 C0 0.66 0 1.32 0 2 C0.928125 2.433125 0.928125 2.433125 1.875 2.875 C4 4 4 4 6 6 C6.39764263 7.98821313 6.73775349 9.98944339 7 12 C7.556875 11.401875 8.11375 10.80375 8.6875 10.1875 C14.17142857 5 14.17142857 5 18 5 C18 4.34 18 3.68 18 3 C27.7053692 -1.60593792 38.03662666 -2.8192597 48.46875 -0.09375 C51.04429675 0.83557099 53.52740529 1.82656522 56 3 C56 3.66 56 4.32 56 5 C56.7425 5.28875 57.485 5.5775 58.25 5.875 C59.61125 6.431875 59.61125 6.431875 61 7 C61.63164063 7.24363281 62.26328125 7.48726562 62.9140625 7.73828125 C65.75925326 9.45924869 67.20291097 11.61207454 69.125 14.3125 C69.80820312 15.25738281 70.49140625 16.20226562 71.1953125 17.17578125 C72.83985607 19.74938515 73.9407467 22.15010423 75 25 C75.33 25.33 75.66 25.66 76 26 C76.08669432 27.4887186 76.10703494 28.981445 76.09765625 30.47265625 C76.09443359 31.37177734 76.09121094 32.27089844 76.08789062 33.19726562 C76.07951172 34.14279297 76.07113281 35.08832031 76.0625 36.0625 C76.05798828 37.01189453 76.05347656 37.96128906 76.04882812 38.93945312 C76.0370011 41.29303065 76.02052025 43.64648477 76 46 C75.01 46.33 74.02 46.66 73 47 C72.67 47.99 72.34 48.98 72 50 C70.35 50 68.7 50 67 50 C67.73669922 50.73476563 67.73669922 50.73476563 68.48828125 51.484375 C70.60320581 55.00378434 70.32438107 58.2769391 70.1875 62.25 C70.16719727 63.36761719 70.16719727 63.36761719 70.14648438 64.5078125 C70.11127204 66.33885416 70.05746851 68.16952169 70 70 C69.34 70 68.68 70 68 70 C67.505 71.485 67.505 71.485 67 73 C66.01 73 65.02 73 64 73 C63.505 74.485 63.505 74.485 63 76 C60.68970915 76.74259349 58.354248 77.411438 56 78 C55.67 78.33 55.34 78.66 55 79 C52.78144736 79.08783542 50.56011504 79.10694609 48.33984375 79.09765625 C47.34314415 79.09553383 47.34314415 79.09553383 46.3263092 79.09336853 C44.19666101 79.08775518 42.06711661 79.07520054 39.9375 79.0625 C38.49674631 79.05748671 37.05599097 79.05292351 35.61523438 79.04882812 C32.07678898 79.03778145 28.53840461 79.02050792 25 79 C24.67 78.01 24.34 77.02 24 76 C23.278125 76.061875 22.55625 76.12375 21.8125 76.1875 C18.4158666 75.96105777 16.68003157 75.06745292 14 73 C14 72.01 14 71.02 14 70 C13.2575 70.103125 12.515 70.20625 11.75 70.3125 C9 70 9 70 6.875 67.8125 C2 60.5 2 60.5 2 58 C1.34 58 0.68 58 0 58 C-2.77506418 51.70302059 -3.43942317 46.59369715 -3.3125 39.75 C-3.31572266 38.86570312 -3.31894531 37.98140625 -3.32226562 37.0703125 C-3.2840757 32.47363384 -3.13008997 30.26017993 -1 26 C-6.61 26 -12.22 26 -18 26 C-18.495 27.485 -18.495 27.485 -19 29 C-20.32 29 -21.64 29 -23 29 C-23.2165625 30.7015625 -23.2165625 30.7015625 -23.4375 32.4375 C-24 36 -24 36 -25 37 C-25.16017166 39.80976518 -25.25950534 42.59773596 -25.31640625 45.41015625 C-25.33718735 46.25219101 -25.35796844 47.09422577 -25.37937927 47.96177673 C-25.44496812 50.66193179 -25.50380276 53.36218717 -25.5625 56.0625 C-25.60567637 57.88868241 -25.64929036 59.71485454 -25.69335938 61.54101562 C-25.80065894 66.02723992 -25.90189966 70.5135655 -26 75 C-26.639375 75.103125 -27.27875 75.20625 -27.9375 75.3125 C-28.618125 75.539375 -29.29875 75.76625 -30 76 C-30.33 76.99 -30.66 77.98 -31 79 C-36.61 79 -42.22 79 -48 79 C-48.33 78.01 -48.66 77.02 -49 76 C-51.01508358 75.26676204 -51.01508358 75.26676204 -53 75 C-53.0505963 68.62796407 -53.08568957 62.2559797 -53.10986328 55.88378906 C-53.11993789 53.71482406 -53.13359798 51.54587269 -53.15087891 49.37695312 C-53.17506323 46.26428874 -53.18646832 43.15180349 -53.1953125 40.0390625 C-53.20563507 39.065065 -53.21595764 38.0910675 -53.22659302 37.08755493 C-53.22674408 36.18677216 -53.22689514 35.28598938 -53.22705078 34.35791016 C-53.231492 33.56293121 -53.23593323 32.76795227 -53.24050903 31.94888306 C-53 30 -53 30 -51 28 C-50.690625 27.071875 -50.38125 26.14375 -50.0625 25.1875 C-49.03100913 22.09302739 -47.87785894 19.66030016 -46 17 C-45.34 17 -44.68 17 -44 17 C-43.67 15.35 -43.34 13.7 -43 12 C-42.34 12 -41.68 12 -41 12 C-40.67 11.01 -40.34 10.02 -40 9 C-37.23344581 6.63677033 -34.13672656 4.83135102 -31 3 C-30.278125 2.57847656 -29.55625 2.15695312 -28.8125 1.72265625 C-20.74257828 -2.21423264 -8.5232357 -2.84107857 0 0 Z M35 24 C35 24.66 35 25.32 35 26 C33.02 26 31.04 26 29 26 C29 26.99 29 27.98 29 29 C28.01 29.495 28.01 29.495 27 30 C33.27 30 39.54 30 46 30 C44.52342062 25.92097496 44.52342062 25.92097496 41.8359375 25.171875 C40.61777344 24.96304688 40.61777344 24.96304688 39.375 24.75 C38.14910156 24.52570312 38.14910156 24.52570312 36.8984375 24.296875 C36.27195312 24.19890625 35.64546875 24.1009375 35 24 Z M32 52 C34.64204532 55.27497533 34.64204532 55.27497533 37.91796875 55.29296875 C38.99691406 55.25816406 40.07585937 55.22335937 41.1875 55.1875 C42.81751953 55.14689453 42.81751953 55.14689453 44.48046875 55.10546875 C45.31191406 55.07066406 46.14335938 55.03585937 47 55 C47 54.34 47 53.68 47 53 C47.66 52.67 48.32 52.34 49 52 C43.39 52 37.78 52 32 52 Z " fill="#FFFFFF" transform="translate(553,720)"/>
<path d="M0 0 C1.34092461 -0.0090033 1.34092461 -0.0090033 2.7089386 -0.01818848 C3.65085556 0.00650513 4.59277252 0.03119873 5.56323242 0.05664062 C6.54740646 0.06038696 7.53158051 0.0641333 8.545578 0.06799316 C10.61402046 0.08138054 12.68241459 0.10910334 14.75048828 0.15039062 C17.92617494 0.21303806 21.09987799 0.2323704 24.27612305 0.24414062 C26.28851721 0.26246904 28.30089112 0.28321689 30.31323242 0.30664062 C31.7412896 0.31939026 31.7412896 0.31939026 33.19819641 0.33239746 C34.07638535 0.35161255 34.95457428 0.37082764 35.859375 0.390625 C36.63324051 0.40428101 37.40710602 0.41793701 38.204422 0.43200684 C40.10620117 0.71289062 40.10620117 0.71289062 42.10620117 2.71289062 C44.07310492 3.38581564 44.07310492 3.38581564 46.23120117 3.83789062 C47.50995117 4.12664063 48.78870117 4.41539062 50.10620117 4.71289062 C50.10620117 5.37289062 50.10620117 6.03289063 50.10620117 6.71289062 C51.09620117 7.04289063 52.08620117 7.37289062 53.10620117 7.71289062 C53.10620117 8.37289062 53.10620117 9.03289063 53.10620117 9.71289062 C54.09620117 10.04289063 55.08620117 10.37289062 56.10620117 10.71289062 C56.10620117 11.37289062 56.10620117 12.03289063 56.10620117 12.71289062 C57.09620117 13.04289063 58.08620117 13.37289062 59.10620117 13.71289062 C59.10620117 14.70289063 59.10620117 15.69289063 59.10620117 16.71289062 C59.76620117 16.71289062 60.42620117 16.71289062 61.10620117 16.71289062 C65.57370638 30.11540626 67.0807107 41.30521206 61.10620117 54.71289062 C59.59448242 57.55273438 59.59448242 57.55273438 58.10620117 59.71289062 C57.44620117 59.71289062 56.78620117 59.71289062 56.10620117 59.71289062 C55.77620117 60.70289063 55.44620117 61.69289063 55.10620117 62.71289062 C54.44620117 62.71289062 53.78620117 62.71289062 53.10620117 62.71289062 C52.77620117 63.70289063 52.44620117 64.69289063 52.10620117 65.71289062 C49.60620117 66.83789062 49.60620117 66.83789062 47.10620117 67.71289062 C46.77620117 68.04289063 46.44620117 68.37289062 46.10620117 68.71289062 C44.10661753 68.75369845 42.10574863 68.75543419 40.10620117 68.71289062 C40.10620117 69.37289062 40.10620117 70.03289062 40.10620117 70.71289062 C37.10604205 71.71294366 35.13196361 71.82864648 32.00073242 71.81054688 C31.01782227 71.80732422 30.03491211 71.80410156 29.0222168 71.80078125 C27.99805664 71.79240234 26.97389648 71.78402344 25.91870117 71.77539062 C24.36505859 71.76862305 24.36505859 71.76862305 22.7800293 71.76171875 C20.22202851 71.74993073 17.66414384 71.73347578 15.10620117 71.71289062 C15.13238525 72.44926758 15.15856934 73.18564453 15.18554688 73.94433594 C15.28953803 77.28363679 15.35453527 80.62259718 15.41870117 83.96289062 C15.4605957 85.12175781 15.50249023 86.280625 15.5456543 87.47460938 C15.66751165 95.90713848 15.66751165 95.90713848 13.16870117 99.49414062 C8.94271983 101.17590871 5.29413075 101.1475965 0.79370117 100.96289062 C-0.04225586 100.94484375 -0.87821289 100.92679688 -1.73950195 100.90820312 C-3.79143111 100.86130189 -5.84276639 100.78956474 -7.89379883 100.71289062 C-8.22379883 100.05289063 -8.55379883 99.39289063 -8.89379883 98.71289062 C-9.88379883 98.38289062 -10.87379883 98.05289063 -11.89379883 97.71289062 C-12.0560538 85.95179666 -12.18040118 74.19096931 -12.25648403 62.42898369 C-12.29300215 56.96722736 -12.34252718 51.50623722 -12.421875 46.04492188 C-12.49798456 40.77344369 -12.53979981 35.50270196 -12.55793953 30.23071671 C-12.57086471 28.22039317 -12.59610562 26.21010956 -12.63390923 24.20009995 C-12.68480413 21.38170342 -12.69171965 18.56634139 -12.68847656 15.74755859 C-12.71364349 14.91821304 -12.73881042 14.08886749 -12.76473999 13.23439026 C-12.7223091 9.82173465 -12.57758824 7.59915736 -10.4540472 4.8468132 C-7.22563453 1.88686562 -4.51007407 -0.04227601 0 0 Z M15.10620117 27.71289062 C15.10620117 33.32289063 15.10620117 38.93289063 15.10620117 44.71289062 C20.71620117 44.71289062 26.32620117 44.71289062 32.10620117 44.71289062 C32.10620117 43.72289062 32.10620117 42.73289062 32.10620117 41.71289062 C32.76620117 41.71289062 33.42620117 41.71289062 34.10620117 41.71289062 C34.22995117 40.90851562 34.35370117 40.10414063 34.48120117 39.27539062 C34.79057617 38.00695312 34.79057617 38.00695312 35.10620117 36.71289062 C35.76620117 36.38289062 36.42620117 36.05289063 37.10620117 35.71289062 C35.75086857 33.17615774 35.75086857 33.17615774 34.10620117 30.71289062 C33.44620117 30.71289062 32.78620117 30.71289062 32.10620117 30.71289062 C32.10620117 29.72289062 32.10620117 28.73289062 32.10620117 27.71289062 C26.49620117 27.71289062 20.88620117 27.71289062 15.10620117 27.71289062 Z " fill="#FFFFFF" transform="translate(435.893798828125,698.287109375)"/>
<path d="M0 0 C0 0.66 0 1.32 0 2 C3.76945557 1.61536168 6.6652869 1.17077199 10.0625 -0.5625 C17.18629022 -3.80350366 26.38586024 -2.95539428 33.5625 -0.3125 C37.46916307 1.50589745 40.32752841 3.55164956 43 7 C43.8125 9.3125 43.8125 9.3125 44 11 C44.66 11 45.32 11 46 11 C46.495 13.97 46.495 13.97 47 17 C47.66 17 48.32 17 49 17 C50.27079883 19.54159765 50.15477432 21.36689832 50.19287109 24.21240234 C50.20893402 25.30048187 50.22499695 26.3885614 50.24154663 27.50961304 C50.2858951 32.48296551 50.3270491 37.45618374 50.35009766 42.4296875 C50.36667719 45.0564051 50.39399293 47.68307723 50.43212891 50.30957031 C50.48675118 54.08943168 50.5087491 57.86823522 50.5234375 61.6484375 C50.54610687 62.82457611 50.56877625 64.00071472 50.59213257 65.2124939 C50.57104799 73.30874754 50.57104799 73.30874754 47.73022461 76.74755859 C45.12786366 77.94134485 43.61800272 78.47688558 40.79296875 78.390625 C40.04208984 78.37773438 39.29121094 78.36484375 38.51757812 78.3515625 C37.74865234 78.31804687 36.97972656 78.28453125 36.1875 78.25 C35.39923828 78.23195313 34.61097656 78.21390625 33.79882812 78.1953125 C31.86535739 78.14844048 29.93251715 78.0767041 28 78 C27.67 77.01 27.34 76.02 27 75 C26.01 75 25.02 75 24 75 C23.06487566 72.19462697 22.87817093 70.51834636 22.88647461 67.62036133 C22.88655014 66.73967484 22.88662567 65.85898834 22.88670349 64.95161438 C22.89186478 64.00465195 22.89702606 63.05768951 22.90234375 62.08203125 C22.9037587 61.10965012 22.90517365 60.13726898 22.90663147 59.13542175 C22.91223183 56.02774996 22.92478438 52.92015004 22.9375 49.8125 C22.94251495 47.70638125 22.94707787 45.60026137 22.95117188 43.49414062 C22.96220138 38.32939936 22.97946625 33.16471187 23 28 C22.01 27.67 21.02 27.34 20 27 C20 26.34 20 25.68 20 25 C16.37 25 12.74 25 9 25 C9 25.99 9 26.98 9 28 C8.01 28 7.02 28 6 28 C6.00785522 29.89274658 6.00785522 29.89274658 6.01586914 31.82373047 C6.03393458 36.49397068 6.04543769 41.16420779 6.05493164 45.83447266 C6.05996831 47.85791543 6.06679789 49.88135456 6.07543945 51.90478516 C6.08753412 54.80892843 6.09323488 57.71302369 6.09765625 60.6171875 C6.10281754 61.52556366 6.10797882 62.43393982 6.11329651 63.36984253 C6.11340981 64.63092331 6.11340981 64.63092331 6.11352539 65.91748047 C6.115746 66.65916473 6.11796661 67.400849 6.12025452 68.16500854 C6 70 6 70 5 72 C4.34 72 3.68 72 3 72 C2.87625 72.804375 2.7525 73.60875 2.625 74.4375 C2.315625 75.7059375 2.315625 75.7059375 2 77 C-1.30994713 78.65497356 -4.99123 78.10084335 -8.625 78.0625 C-9.42679688 78.05798828 -10.22859375 78.05347656 -11.0546875 78.04882812 C-13.03649006 78.03703168 -15.01825433 78.01909605 -17 78 C-17 77.01 -17 76.02 -17 75 C-18.32 74.67 -19.64 74.34 -21 74 C-21.11619309 65.53292273 -21.20486534 57.06618227 -21.25906086 48.59850311 C-21.28508102 44.66596684 -21.32033773 40.73397869 -21.37719727 36.80175781 C-21.43179153 33.00212774 -21.46147748 29.20302262 -21.47438622 25.4030304 C-21.48357737 23.95819339 -21.50152556 22.51338297 -21.52865028 21.06877136 C-21.79954883 6.0341548 -21.79954883 6.0341548 -16 0 C-11.12917027 -3.07631351 -4.88414399 -3.12585215 0 0 Z " fill="#FFFFFF" transform="translate(793,721)"/>
<path d="M0 0 C0.99 0.33 1.98 0.66 3 1 C3 1.66 3 2.32 3 3 C3.99 3.33 4.98 3.66 6 4 C6 4.99 6 5.98 6 7 C6.99 7 7.98 7 9 7 C9 11.29 9 15.58 9 20 C8.01 20.33 7.02 20.66 6 21 C5.505 22.485 5.505 22.485 5 24 C2.52076199 24.02685095 0.0418116 24.04676547 -2.4375 24.0625 C-3.14455078 24.07087891 -3.85160156 24.07925781 -4.58007812 24.08789062 C-6.38693559 24.09653588 -8.19387603 24.05220011 -10 24 C-10.33 23.67 -10.66 23.34 -11 23 C-12.51469448 22.76807135 -14.03754562 22.58784762 -15.5625 22.4375 C-16.38878906 22.35371094 -17.21507812 22.26992188 -18.06640625 22.18359375 C-19.02353516 22.09271484 -19.02353516 22.09271484 -20 22 C-20 22.66 -20 23.32 -20 24 C-17.69 24.33 -15.38 24.66 -13 25 C-13 25.66 -13 26.32 -13 27 C-12.34 27.103125 -11.68 27.20625 -11 27.3125 C-7.16158991 28.19213564 -3.66903309 29.56969896 0 31 C0 31.66 0 32.32 0 33 C0.928125 33.185625 0.928125 33.185625 1.875 33.375 C4 34 4 34 6 36 C6 36.99 6 37.98 6 39 C6.99 39 7.98 39 9 39 C9 40.65 9 42.3 9 44 C9.66 44 10.32 44 11 44 C12.38226016 46.76452033 12.09525387 49.0461363 12.0625 52.125 C12.05347656 53.22070312 12.04445313 54.31640625 12.03515625 55.4453125 C12.02355469 56.28835938 12.01195312 57.13140625 12 58 C10.515 58.495 10.515 58.495 9 59 C9 60.98 9 62.96 9 65 C8.01 65 7.02 65 6 65 C6 65.99 6 66.98 6 68 C4.6875 69.6875 4.6875 69.6875 3 71 C2.01 71 1.02 71 0 71 C-0.495 72.485 -0.495 72.485 -1 74 C-2.65 74 -4.3 74 -6 74 C-6.495 75.485 -6.495 75.485 -7 77 C-10.95099928 77.0246985 -14.90196874 77.04285923 -18.85302734 77.05493164 C-20.85906551 77.06244036 -22.86508202 77.0751447 -24.87109375 77.08789062 C-26.75634766 77.09272461 -26.75634766 77.09272461 -28.6796875 77.09765625 C-30.42354736 77.10551147 -30.42354736 77.10551147 -32.20263672 77.11352539 C-35 77 -35 77 -37 76 C-37 75.34 -37 74.68 -37 74 C-38.98 74 -40.96 74 -43 74 C-43.33 73.34 -43.66 72.68 -44 72 C-45.134375 71.38125 -46.26875 70.7625 -47.4375 70.125 C-49.55691921 68.93499823 -50.88486679 68.14016217 -52.4375 66.25 C-53.42881278 62.28474888 -53.85958967 57.71917934 -52 54 C-51.34 54 -50.68 54 -50 54 C-49.34 52.68 -48.68 51.36 -48 50 C-47.34 50 -46.68 50 -46 50 C-46 49.34 -46 48.68 -46 48 C-39.80112515 47.62047705 -35.5522888 48.1647887 -30 51 C-30 51.66 -30 52.32 -30 53 C-25.71 53 -21.42 53 -17 53 C-17 52.34 -17 51.68 -17 51 C-18.175625 51.061875 -18.175625 51.061875 -19.375 51.125 C-22 51 -22 51 -24 49 C-25.54312473 48.32858558 -27.109513 47.70979763 -28.6875 47.125 C-33.07889894 45.42962682 -36.98318007 43.44502083 -41 41 C-41 40.34 -41 39.68 -41 39 C-41.99 38.67 -42.98 38.34 -44 38 C-44 37.34 -44 36.68 -44 36 C-44.66 36 -45.32 36 -46 36 C-49.89840187 30.54223738 -50.84461327 24.61994184 -50 18 C-48.98154378 14.51103116 -47.83396855 11.14657481 -46 8 C-45.01 7.67 -44.02 7.34 -43 7 C-43 6.34 -43 5.68 -43 5 C-31.13330471 -4.84683226 -14.03903147 -6.15746994 0 0 Z " fill="#FFFFFF" transform="translate(898,722)"/>
<path d="M0 0 C0 0.66 0 1.32 0 2 C1.65 2 3.3 2 5 2 C5.33 2.99 5.66 3.98 6 5 C6.99 5.33 7.98 5.66 9 6 C9.08089542 8.77141717 9.14044062 11.54047819 9.1875 14.3125 C9.21263672 15.09818359 9.23777344 15.88386719 9.26367188 16.69335938 C9.27333984 17.45068359 9.28300781 18.20800781 9.29296875 18.98828125 C9.3086792 19.68477783 9.32438965 20.38127441 9.34057617 21.09887695 C8.89567045 23.58237578 7.96642914 24.47101992 6 26 C5.34 26 4.68 26 4 26 C4.52268466 28.76276177 5.10869587 31.3260876 6 34 C7.485 34.495 7.485 34.495 9 35 C9.13902513 43.92724203 9.24563221 52.85411149 9.31087303 61.78219986 C9.34218594 65.92794276 9.38465561 70.07294509 9.45263672 74.21826172 C9.5178344 78.21889263 9.55370635 82.21881139 9.56926346 86.21993256 C9.58034943 87.74625615 9.6019989 89.27254076 9.63438034 90.7985611 C9.67795604 92.93720145 9.68393466 95.07290115 9.68115234 97.21191406 C9.69447601 98.4288092 9.70779968 99.64570435 9.7215271 100.8994751 C9 104 9 104 6.17666626 106.39105225 C2.48175776 108.2624842 -0.00022224 108.53563523 -4.125 108.5 C-5.32382812 108.5103125 -6.52265625 108.520625 -7.7578125 108.53125 C-11.5705647 107.90650988 -12.64863028 106.99068223 -15 104 C-17.30601323 100.54098015 -17.26582932 99.17704914 -17.30639648 95.0949707 C-17.32238388 93.87973221 -17.33837128 92.66449371 -17.35484314 91.41242981 C-17.36020584 90.09683578 -17.36556854 88.78124176 -17.37109375 87.42578125 C-17.38006476 86.05917769 -17.38918669 84.69257511 -17.39845276 83.32597351 C-17.41494571 80.45858376 -17.42264269 77.59131075 -17.42553711 74.72387695 C-17.43090422 71.06644347 -17.46851089 67.41012333 -17.51428127 63.75300312 C-17.54417708 60.9277914 -17.55126343 58.10284287 -17.55226326 55.2774868 C-17.5584674 53.27898245 -17.58788443 51.28059319 -17.61778259 49.28230286 C-17.58489871 42.62191426 -17.31795903 37.90755733 -13.15345764 32.54240417 C-11.61609056 30.48663609 -11.23692493 28.52719921 -11 26 C-11.99 26 -12.98 26 -14 26 C-16.90009004 23.65761958 -17.84019509 21.49849849 -18.23828125 17.765625 C-18.42076037 11.58054313 -17.9014679 7.90184429 -14 3 C-9.23529392 0.21309644 -5.470346 -0.33491914 0 0 Z " fill="#FFFFFF" transform="translate(930,691)"/>
</svg>
